<?xml version="1.0" encoding="UTF-8" standalone="no"?>
<!DOCTYPE svg PUBLIC "-//W3C//DTD SVG 1.1//EN" "http://www.w3.org/Graphics/SVG/1.1/DTD/svg11.dtd">
<svg xmlns="http://www.w3.org/2000/svg" version="1.1" viewBox="0.00 0.00 576.00 238.00">
<g stroke-width="2.00" fill="none" stroke-linecap="butt">
<path stroke="#9fe5f1" vector-effect="non-scaling-stroke" d="
  M 72.04 142.99
  C 42.92 126.76 32.64 90.86 49.90 62.11
  C 68.37 31.36 110.77 24.13 139.30 45.80
  C 155.08 57.78 171.19 34.75 154.49 22.98
  C 136.19 10.07 114.44 4.07 92.27 6.64
  C 30.74 13.76 -6.20 81.02 26.61 135.41
  Q 39.55 156.86 62.91 168.91
  A 0.97 0.96 22.6 0 0 64.27 168.35
  L 72.36 143.80
  Q 72.54 143.26 72.04 142.99"
/>
<path stroke="#8bd1fb" vector-effect="non-scaling-stroke" d="
  M 71.03 124.46
  C 76.22 129.62 80.13 134.20 78.19 141.44
  Q 76.74 146.85 70.37 165.40
  C 68.38 171.20 66.16 175.31 60.49 176.98
  Q 47.10 180.91 41.69 191.76
  C 35.51 204.15 39.04 219.45 50.75 227.28
  C 74.39 243.09 102.90 218.11 91.27 192.45
  C 87.23 183.53 81.56 182.44 84.92 171.45
  Q 91.05 151.34 93.33 146.07
  C 98.06 135.11 108.40 138.12 117.28 134.58
  Q 141.04 125.11 146.11 99.63
  C 147.21 94.11 145.55 88.16 148.52 83.24
  C 151.14 78.92 154.37 77.70 158.80 75.68
  Q 172.51 69.41 186.33 63.39
  C 194.18 59.97 197.85 65.04 205.23 65.67
  C 227.10 67.53 236.21 38.94 217.37 27.59
  C 209.02 22.56 197.30 24.96 191.20 32.97
  C 189.26 35.52 188.17 38.91 186.78 41.99
  C 184.65 46.70 182.02 47.98 177.55 50.04
  Q 163.14 56.67 148.53 62.84
  C 139.49 66.65 134.94 61.28 128.19 56.35
  C 102.47 37.54 67.65 49.12 59.03 79.74
  Q 51.82 105.37 71.03 124.46"
/>
<path stroke="#9fe5f1" vector-effect="non-scaling-stroke" d="
  M 265.99 146.36
  C 261.76 141.59 259.65 132.83 251.28 133.54
  C 240.02 134.49 236.04 144.44 240.54 153.94
  C 253.16 180.61 285.00 186.57 311.00 179.51
  C 327.78 174.95 340.69 164.39 343.13 146.51
  C 346.38 122.67 330.77 105.96 308.50 100.52
  C 299.96 98.43 274.69 93.27 271.28 87.48
  C 266.37 79.13 270.13 70.74 279.07 67.86
  C 293.75 63.12 304.36 68.29 315.78 77.23
  C 325.15 84.57 337.89 76.42 335.74 65.15
  C 333.35 52.64 316.99 43.27 305.53 40.83
  C 284.95 36.46 259.35 41.17 246.76 59.83
  C 236.70 74.75 239.28 97.83 253.95 109.31
  C 267.23 119.70 281.76 122.18 300.21 126.89
  Q 305.61 128.26 309.25 130.48
  C 319.71 136.85 315.17 150.15 305.36 154.26
  C 292.46 159.67 275.68 157.31 265.99 146.36"
/>
<path stroke="#9fe5f1" vector-effect="non-scaling-stroke" d="
  M 462.53 58.41
  C 429.64 26.35 372.26 39.48 361.71 86.36
  Q 360.26 92.80 360.25 106.24
  Q 360.23 134.76 360.27 163.28
  Q 360.27 169.13 361.46 171.91
  C 367.85 186.77 390.19 181.29 390.22 165.93
  Q 390.28 134.04 390.25 102.15
  Q 390.24 94.55 391.59 90.50
  C 400.46 63.80 437.87 64.87 445.79 91.42
  Q 447.26 96.35 447.26 107.24
  Q 447.26 135.85 447.22 164.49
  C 447.19 186.59 478.53 185.89 478.72 165.25
  Q 478.94 142.02 478.62 105.90
  Q 478.54 96.76 479.54 92.81
  C 486.64 64.78 525.92 63.23 534.47 91.35
  Q 535.78 95.66 535.76 103.31
  Q 535.72 132.55 535.77 161.80
  Q 535.79 168.48 536.96 171.42
  C 543.16 187.03 565.77 181.95 565.77 165.00
  Q 565.78 136.40 565.74 107.82
  Q 565.71 94.08 564.48 87.90
  C 554.88 39.92 496.56 25.85 463.31 58.41
  Q 462.92 58.79 462.53 58.41"
/>
<path stroke="#9fe5f1" vector-effect="non-scaling-stroke" d="
  M 220.98 87.84
  A 13.82 13.82 0.0 0 0 207.16 74.02
  L 206.32 74.02
  A 13.82 13.82 0.0 0 0 192.50 87.84
  L 192.50 160.88
  A 13.82 13.82 0.0 0 0 206.32 174.70
  L 207.16 174.70
  A 13.82 13.82 0.0 0 0 220.98 160.88
  L 220.98 87.84"
/>
<path stroke="#9fe5f1" vector-effect="non-scaling-stroke" d="
  M 160.14 154.78
  C 165.42 143.97 156.10 132.50 144.44 135.62
  Q 142.17 136.22 137.02 139.75
  Q 119.44 151.81 97.47 150.61
  Q 96.90 150.58 96.72 151.13
  L 88.67 175.43
  A 1.27 1.27 0.0 0 0 89.72 177.09
  Q 124.65 181.38 153.02 162.01
  Q 158.40 158.34 160.14 154.78"
/>
<path stroke="#8fcfd9" vector-effect="non-scaling-stroke" d="
  M 464.8516 204.2872
  A 1.74 1.09 131.3 0 0 466.8189 203.6994
  A 1.74 1.09 131.3 0 0 467.1484 201.6728
  A 1.74 1.09 131.3 0 0 465.1811 202.2606
  A 1.74 1.09 131.3 0 0 464.8516 204.2872"
/>
<path stroke="#8fcfd9" vector-effect="non-scaling-stroke" d="
  M 383.36 202.60
  L 379.65 202.91
  A 0.28 0.28 0.0 0 0 379.40 203.21
  L 379.41 203.38
  A 1.98 1.51 -4.8 0 0 381.51 204.72
  L 381.83 204.69
  A 1.98 1.51 -4.8 0 0 383.68 203.02
  L 383.66 202.85
  A 0.28 0.28 0.0 0 0 383.36 202.60"
/>
<path stroke="#8fcfd9" vector-effect="non-scaling-stroke" d="
  M 108.19 208.29
  Q 110.23 207.69 112.10 209.13
  Q 112.56 209.48 113.08 209.22
  Q 114.14 208.67 113.60 207.32
  Q 113.46 206.96 113.18 206.72
  C 107.35 201.75 99.56 210.17 104.65 216.18
  C 106.59 218.48 114.07 219.93 113.70 214.91
  A 0.92 0.92 0.0 0 0 112.10 214.35
  C 107.46 219.43 102.48 209.95 108.19 208.29"
/>
<path stroke="#8fcfd9" vector-effect="non-scaling-stroke" d="
  M 118.46 214.81
  Q 119.16 212.46 121.77 212.81
  A 1.05 1.05 0.0 0 0 122.26 210.78
  Q 121.03 210.35 119.79 210.52
  Q 119.25 210.59 118.99 210.11
  L 118.61 209.40
  Q 118.33 208.88 118.84 208.61
  Q 120.34 207.82 122.03 208.05
  A 1.23 1.23 0.0 0 0 122.46 205.63
  Q 119.88 205.08 117.06 205.49
  A 1.50 1.50 0.0 0 0 115.78 206.95
  L 115.61 216.81
  A 1.20 1.19 -89.8 0 0 116.81 218.03
  L 123.55 217.94
  A 0.83 0.83 0.0 0 0 123.68 216.29
  L 118.91 215.52
  A 0.57 0.56 13.2 0 1 118.46 214.81"
/>
<path stroke="#8fcfd9" vector-effect="non-scaling-stroke" d="
  M 140.51 208.69
  L 140.72 217.26
  Q 140.74 217.88 141.30 218.12
  Q 142.28 218.55 143.23 217.87
  Q 143.63 217.58 143.62 217.08
  L 143.45 208.78
  Q 143.44 208.25 143.97 208.25
  L 145.75 208.25
  A 0.69 0.69 0.0 0 0 146.44 207.58
  L 146.51 205.86
  Q 146.52 205.38 146.04 205.39
  L 138.12 205.62
  A 0.97 0.97 0.0 0 0 137.94 207.54
  L 139.94 207.99
  A 0.74 0.73 6.1 0 1 140.51 208.69"
/>
<path stroke="#8fcfd9" vector-effect="non-scaling-stroke" d="
  M 341.64 211.76
  A 6.42 6.42 0.0 0 0 335.22 205.34
  A 6.42 6.42 0.0 0 0 328.80 211.76
  A 6.42 6.42 0.0 0 0 335.22 218.18
  A 6.42 6.42 0.0 0 0 341.64 211.76"
/>
<path stroke="#8fcfd9" vector-effect="non-scaling-stroke" d="
  M 442.72 207.86
  L 445.77 208.84
  A 0.73 0.73 0.0 0 0 446.68 207.88
  C 445.30 204.32 438.94 204.72 438.50 208.24
  C 438.01 212.14 441.66 212.26 444.18 213.63
  A 1.19 1.19 0.0 0 1 443.96 215.81
  Q 442.04 216.40 440.89 215.09
  Q 440.55 214.72 440.12 214.46
  Q 438.97 213.78 438.45 214.82
  A 0.93 0.92 43.5 0 0 438.48 215.71
  C 441.69 221.04 449.90 216.77 446.85 212.76
  C 445.78 211.35 442.91 210.38 441.24 209.65
  A 0.54 0.54 0.0 0 1 441.09 208.76
  L 441.87 208.05
  A 0.87 0.87 0.0 0 1 442.72 207.86"
/>
<path stroke="#8fcfd9" vector-effect="non-scaling-stroke" d="
  M 456.37 215.71
  Q 456.44 216.99 457.39 217.86
  A 1.01 1.00 -37.9 0 0 458.56 218.00
  Q 459.45 217.51 459.17 216.52
  Q 457.81 211.74 455.88 207.16
  Q 454.70 204.38 452.37 206.06
  A 1.23 1.20 -9.8 0 0 451.94 206.65
  L 448.51 216.67
  Q 448.33 217.21 448.73 217.63
  Q 449.45 218.36 450.42 217.88
  C 451.16 217.52 451.33 216.65 451.54 216.14
  A 2.79 2.14 -42.6 0 1 456.37 215.71"
/>
<path stroke="#8fcfd9" vector-effect="non-scaling-stroke" d="
  M 468.48 205.84
  C 468.23 208.54 469.32 216.20 465.54 215.96
  A 2.07 2.05 -2.6 0 1 463.64 214.24
  Q 463.10 210.99 463.53 208.26
  Q 463.88 206.09 462.24 205.50
  A 0.86 0.86 0.0 0 0 461.10 206.17
  C 460.48 209.82 459.80 217.38 465.12 218.14
  C 471.96 219.11 470.92 209.55 470.11 205.74
  A 0.83 0.82 -48.4 0 0 468.48 205.84"
/>
<path stroke="#8fcfd9" vector-effect="non-scaling-stroke" d="
  M 131.91 211.42
  C 130.87 209.80 129.51 204.84 126.85 205.68
  Q 126.29 205.86 126.30 206.45
  L 126.56 216.98
  A 1.29 1.29 0.0 0 0 129.14 217.00
  L 129.30 212.78
  A 0.53 0.53 0.0 0 1 130.31 212.56
  L 132.88 217.66
  A 1.41 1.40 30.6 0 0 135.54 216.98
  Q 135.37 212.32 135.63 207.18
  Q 135.67 206.41 135.37 206.02
  Q 134.90 205.43 134.00 205.52
  A 1.19 1.19 0.0 0 0 132.93 206.63
  L 132.67 211.22
  A 0.41 0.41 0.0 0 1 131.91 211.42"
/>
<path stroke="#8fcfd9" vector-effect="non-scaling-stroke" d="
  M 151.55 214.42
  Q 152.51 214.05 153.24 214.61
  C 154.16 215.32 154.10 216.80 155.44 217.97
  A 1.14 1.14 0.0 0 0 157.21 216.62
  L 155.82 213.71
  Q 155.55 213.14 155.99 212.68
  C 157.45 211.13 159.40 210.40 157.92 207.81
  C 156.22 204.83 152.65 205.43 149.92 205.52
  A 1.47 1.47 0.0 0 0 148.50 206.99
  L 148.50 216.79
  A 1.46 1.46 0.0 0 0 151.39 217.06
  Q 151.56 216.19 151.18 215.25
  A 0.64 0.63 -21.2 0 1 151.55 214.42"
/>
<path stroke="#8fcfd9" vector-effect="non-scaling-stroke" d="
  M 172.32 211.82
  A 6.34 6.34 0.0 0 0 165.98 205.48
  A 6.34 6.34 0.0 0 0 159.64 211.82
  A 6.34 6.34 0.0 0 0 165.98 218.16
  A 6.34 6.34 0.0 0 0 172.32 211.82"
/>
<path stroke="#8fcfd9" vector-effect="non-scaling-stroke" d="
  M 179.06 207.62
  L 179.06 215.90
  A 2.13 2.13 0.0 0 0 181.19 218.03
  L 183.93 218.03
  A 5.64 5.55 90.0 0 0 189.48 212.39
  L 189.48 211.13
  A 5.64 5.55 -90.0 0 0 183.93 205.49
  L 181.19 205.49
  A 2.13 2.13 0.0 0 0 179.06 207.62"
/>
<path stroke="#8fcfd9" vector-effect="non-scaling-stroke" d="
  M 194.48 214.40
  L 194.87 213.24
  A 0.76 0.76 0.0 0 1 195.71 212.73
  L 197.85 213.08
  Q 198.59 213.20 198.66 212.46
  L 198.77 211.42
  Q 198.84 210.75 198.16 210.75
  L 195.90 210.75
  A 1.39 1.38 -58.6 0 1 195.27 208.13
  Q 196.77 207.36 198.50 207.94
  Q 199.00 208.10 199.18 207.62
  L 199.52 206.74
  Q 199.78 206.04 199.06 205.88
  Q 195.74 205.13 192.41 205.74
  A 0.61 0.60 -5.2 0 0 191.91 206.33
  L 191.91 217.25
  A 0.65 0.65 0.0 0 0 192.56 217.90
  L 199.76 217.97
  A 0.89 0.89 0.0 0 0 199.83 216.19
  L 195.49 215.90
  A 1.15 1.14 -79.0 0 1 194.48 214.40"
/>
<path stroke="#8fcfd9" vector-effect="non-scaling-stroke" d="
  M 209.39 214.07
  C 210.87 213.95 212.45 214.10 213.68 213.27
  C 216.78 211.17 216.54 206.70 212.68 205.76
  Q 210.73 205.28 208.30 205.57
  A 1.75 1.75 0.0 0 0 206.75 207.31
  L 206.75 217.37
  Q 206.75 218.00 207.37 218.00
  L 208.55 218.00
  Q 209.11 218.00 209.04 217.45
  L 208.74 214.86
  A 0.71 0.70 84.6 0 1 209.39 214.07"
/>
<path stroke="#8fcfd9" vector-effect="non-scaling-stroke" d="
  M 220.54 210.48
  L 220.54 208.14
  A 0.69 0.69 0.0 0 1 221.33 207.46
  L 224.86 208.03
  A 0.59 0.59 0.0 0 0 225.54 207.36
  L 225.35 206.10
  A 0.73 0.72 -4.1 0 0 224.63 205.48
  L 218.91 205.54
  A 0.75 0.74 0.4 0 0 218.16 206.27
  L 217.94 217.22
  Q 217.92 217.96 218.66 217.97
  L 225.12 218.01
  Q 225.75 218.02 225.75 217.38
  L 225.75 216.50
  Q 225.75 216.01 225.25 216.01
  L 220.92 215.99
  A 0.68 0.67 1.6 0 1 220.25 215.29
  L 220.31 213.63
  Q 220.33 213.15 220.81 213.10
  L 224.10 212.77
  A 0.93 0.93 0.0 0 0 224.31 210.97
  Q 222.79 210.44 221.31 211.01
  Q 220.54 211.30 220.54 210.48"
/>
<path stroke="#8fcfd9" vector-effect="non-scaling-stroke" d="
  M 233.28 213.49
  A 1.53 1.53 0.0 0 1 232.21 216.35
  Q 230.29 215.82 229.20 214.27
  A 0.66 0.66 0.0 0 0 228.26 214.12
  Q 227.69 214.54 227.67 215.22
  C 227.56 218.33 234.00 219.35 235.72 216.33
  C 238.01 212.33 233.14 211.11 230.71 210.05
  A 1.24 1.23 -66.5 0 1 230.07 208.42
  Q 230.49 207.48 231.46 207.43
  C 232.66 207.38 233.46 208.68 234.42 208.86
  A 1.27 1.27 0.0 0 0 235.20 206.47
  C 232.56 205.18 228.42 204.89 227.75 208.35
  C 227.08 211.85 230.98 212.38 233.28 213.49"
/>
<path stroke="#8fcfd9" vector-effect="non-scaling-stroke" d="
  M 248.86 216.51
  C 254.90 207.20 242.64 201.21 238.73 208.75
  C 236.08 213.86 240.21 218.48 245.69 218.25
  A 1.17 1.17 0.0 0 1 246.44 218.50
  L 248.03 219.79
  A 0.64 0.64 0.0 0 0 249.06 219.18
  L 248.71 217.27
  Q 248.64 216.86 248.86 216.51"
/>
<path stroke="#8fcfd9" vector-effect="non-scaling-stroke" d="
  M 255.44 217.56
  C 263.51 221.25 262.85 210.40 262.73 206.26
  Q 262.71 205.55 262.00 205.59
  L 260.72 205.65
  Q 260.05 205.68 260.05 206.34
  L 260.02 214.05
  A 2.00 1.99 1.9 0 1 257.90 216.03
  C 254.27 215.81 255.20 209.11 255.10 206.57
  Q 255.04 205.20 253.92 205.57
  A 1.35 1.35 0.0 0 0 253.00 206.81
  C 252.92 209.67 252.13 216.05 255.44 217.56"
/>
<path stroke="#8fcfd9" vector-effect="non-scaling-stroke" d="
  M 276.12 215.65
  A 1.56 1.56 0.0 0 1 273.85 215.99
  L 271.72 214.30
  Q 271.33 213.99 270.97 214.32
  Q 269.82 215.36 270.81 216.51
  C 273.55 219.69 278.40 218.38 279.22 213.93
  A 0.98 0.98 0.0 0 0 278.94 213.04
  Q 276.55 210.70 273.30 209.92
  A 0.81 0.80 -49.3 0 1 273.19 208.39
  Q 275.42 207.47 277.28 209.09
  A 0.53 0.52 -61.9 0 0 278.13 208.83
  L 278.52 207.39
  A 0.85 0.83 -67.7 0 0 278.13 206.44
  C 274.71 204.44 268.28 205.94 270.85 211.08
  A 1.17 1.16 -5.2 0 0 271.58 211.68
  C 273.19 212.15 277.78 213.23 276.12 215.65"
/>
<path stroke="#8fcfd9" vector-effect="non-scaling-stroke" d="
  M 283.91 206.51
  L 281.34 214.16
  Q 281.17 214.68 280.81 215.09
  Q 279.93 216.11 280.36 217.41
  A 1.04 1.04 0.0 0 0 282.11 217.78
  L 285.40 214.17
  A 0.75 0.75 0.0 0 0 285.46 213.23
  Q 284.49 211.87 284.76 210.21
  Q 284.84 209.73 285.10 209.56
  Q 285.45 209.33 285.97 209.59
  A 0.85 0.83 16.3 0 1 286.43 210.41
  C 286.27 212.51 287.49 219.28 291.11 217.56
  Q 291.60 217.33 291.41 216.83
  L 287.52 206.45
  A 1.92 1.92 0.0 0 0 283.91 206.51"
/>
<path stroke="#8fcfd9" vector-effect="non-scaling-stroke" d="
  M 300.64 207.86
  Q 301.99 207.53 303.82 207.83
  A 1.03 1.02 56.1 0 0 304.21 205.82
  Q 301.03 205.10 297.85 205.78
  Q 297.32 205.89 297.27 206.43
  Q 296.56 214.18 297.06 216.70
  Q 297.36 218.19 298.84 218.11
  C 300.57 218.01 301.67 218.08 303.06 217.99
  A 5.50 4.74 30.8 0 0 304.03 217.82
  Q 306.13 217.23 304.67 215.96
  A 0.43 0.38 64.1 0 0 304.45 215.87
  L 300.08 215.69
  A 0.61 0.61 0.0 0 1 299.49 215.08
  L 299.52 213.09
  A 0.63 0.62 14.0 0 1 300.43 212.55
  Q 301.80 213.25 303.28 212.77
  A 1.06 1.06 0.0 0 0 302.99 210.71
  Q 301.98 210.67 300.98 210.90
  A 1.62 1.43 -54.9 0 1 300.64 207.86"
/>
<path stroke="#8fcfd9" vector-effect="non-scaling-stroke" d="
  M 314.2794 206.1702
  A 0.47 0.47 0.0 0 0 313.8136 205.6961
  L 312.4736 205.6844
  A 0.47 0.47 0.0 0 0 311.9995 206.1503
  L 311.9006 217.4898
  A 0.47 0.47 0.0 0 0 312.3664 217.9639
  L 313.7064 217.9756
  A 0.47 0.47 0.0 0 0 314.1805 217.5097
  L 314.2794 206.1702"
/>
<path stroke="#8fcfd9" vector-effect="non-scaling-stroke" d="
  M 320.40 211.77
  Q 322.55 214.02 323.36 217.00
  A 0.87 0.85 84.3 0 0 324.13 217.64
  L 326.33 217.79
  Q 327.00 217.83 327.00 217.16
  L 327.00 207.00
  A 1.47 1.47 0.0 0 0 325.04 205.62
  C 323.24 206.26 324.21 209.68 324.55 211.05
  A 0.50 0.50 0.0 0 1 323.77 211.57
  C 321.33 209.76 321.15 204.95 317.87 205.80
  A 0.73 0.73 0.0 0 0 317.33 206.49
  Q 317.20 211.53 317.22 216.68
  A 1.27 1.26 -45.2 0 0 319.75 216.67
  L 319.75 212.03
  A 0.38 0.38 0.0 0 1 320.40 211.77"
/>
<path stroke="#8fcfd9" vector-effect="non-scaling-stroke" d="
  M 347.03 212.48
  C 346.48 210.74 345.89 205.47 343.43 205.55
  A 0.91 0.91 0.0 0 0 342.58 206.72
  L 345.55 216.82
  A 1.70 1.70 0.0 0 0 348.80 216.84
  L 351.74 207.24
  A 1.27 1.27 0.0 0 0 349.75 205.87
  C 348.53 206.83 347.92 210.83 347.74 212.41
  A 0.37 0.36 39.3 0 1 347.03 212.48"
/>
<path stroke="#8fcfd9" vector-effect="non-scaling-stroke" d="
  M 356.05 205.95
  L 352.13 216.51
  A 1.20 1.20 0.0 0 0 354.15 217.73
  L 356.59 214.97
  A 1.75 1.75 0.0 0 1 359.50 215.42
  Q 360.36 217.36 362.30 217.92
  A 0.83 0.82 -3.4 0 0 363.29 216.81
  Q 361.41 212.39 360.00 207.83
  C 359.38 205.83 358.36 204.78 356.16 205.83
  A 0.23 0.21 -4.4 0 0 356.05 205.95"
/>
<path stroke="#8fcfd9" vector-effect="non-scaling-stroke" d="
  M 371.93 218.44
  L 375.49 215.95
  A 0.89 0.89 0.0 0 0 374.69 214.38
  L 370.78 215.68
  Q 370.37 215.82 369.95 215.71
  C 363.73 214.13 367.40 204.58 373.90 209.11
  A 0.57 0.56 36.4 0 0 374.68 209.00
  C 375.37 208.13 375.08 207.09 374.13 206.51
  C 365.26 201.04 359.51 215.25 369.43 218.33
  A 0.48 0.47 -57.0 0 1 369.60 219.14
  L 368.39 220.22
  A 0.95 0.94 -55.1 0 0 368.67 221.81
  Q 369.96 222.32 371.06 221.59
  A 0.98 0.98 0.0 0 0 371.50 220.77
  L 371.50 219.26
  Q 371.50 218.74 371.93 218.44"
/>
<path stroke="#8fcfd9" vector-effect="non-scaling-stroke" d="
  M 380.07 206.15
  Q 377.74 210.67 376.91 215.43
  Q 376.81 215.96 376.09 216.49
  Q 375.61 216.84 376.06 217.22
  C 378.01 218.87 379.40 216.24 380.22 214.90
  A 0.81 0.81 0.0 0 1 381.08 214.53
  C 383.95 215.10 383.40 216.60 385.23 217.80
  Q 386.28 218.50 387.05 217.49
  A 0.98 0.96 -37.8 0 0 387.18 216.55
  L 383.08 206.30
  A 1.66 1.65 47.8 0 0 380.07 206.15"
/>
<path stroke="#8fcfd9" vector-effect="non-scaling-stroke" d="
  M 400.69 211.79
  A 6.36 6.36 0.0 0 0 394.33 205.43
  A 6.36 6.36 0.0 0 0 387.97 211.79
  A 6.36 6.36 0.0 0 0 394.33 218.15
  A 6.36 6.36 0.0 0 0 400.69 211.79"
/>
<path stroke="#8fcfd9" vector-effect="non-scaling-stroke" d="
  M 407.34 206.96
  C 407.14 210.00 407.35 213.01 407.13 216.04
  C 406.93 218.99 413.10 217.98 414.99 217.87
  A 0.86 0.86 0.0 0 0 415.02 216.15
  L 410.81 215.78
  Q 410.14 215.72 410.03 215.06
  L 409.75 213.48
  A 0.63 0.62 85.3 0 1 410.36 212.75
  L 412.85 212.75
  Q 413.35 212.75 413.75 212.45
  Q 414.71 211.73 413.69 211.00
  Q 413.34 210.75 412.91 210.75
  L 410.96 210.75
  A 1.37 1.37 0.0 0 1 410.79 208.03
  L 414.24 207.60
  Q 414.60 207.56 414.73 207.22
  Q 415.33 205.78 413.84 205.61
  Q 411.33 205.32 408.57 205.66
  Q 407.42 205.81 407.34 206.96"
/>
<path stroke="#8fcfd9" vector-effect="non-scaling-stroke" d="
  M 421.58 211.69
  Q 422.06 214.52 424.05 216.46
  A 0.99 0.99 0.0 0 0 425.58 216.27
  L 428.47 211.61
  Q 428.83 211.04 428.90 211.71
  L 429.48 217.35
  Q 429.55 217.95 430.16 217.97
  L 431.27 218.01
  Q 432.08 218.04 432.00 217.23
  L 430.89 206.68
  A 0.74 0.73 19.5 0 0 430.68 206.25
  Q 429.14 204.66 428.27 206.19
  Q 426.39 209.48 425.14 213.09
  Q 424.91 213.74 424.59 213.13
  L 421.15 206.40
  A 1.50 1.49 -56.0 0 0 418.33 206.95
  L 417.45 216.98
  A 1.24 1.24 0.0 0 0 419.89 217.35
  Q 420.40 215.01 420.45 211.78
  A 0.57 0.57 0.0 0 1 421.58 211.69"
/>
<path stroke="#8fcfd9" vector-effect="non-scaling-stroke" d="
  M 473.50 207.32
  L 473.50 216.30
  A 1.88 1.88 0.0 0 0 475.38 218.18
  L 478.21 218.18
  A 6.21 6.01 90.0 0 0 484.22 211.97
  L 484.22 211.65
  A 6.21 6.01 -90.0 0 0 478.21 205.44
  L 475.38 205.44
  A 1.88 1.88 0.0 0 0 473.50 207.32"
/>
<path stroke="#8fcfd9" vector-effect="non-scaling-stroke" d="
  M 489.48 213.31
  L 492.50 212.76
  A 1.30 0.97 -42.0 0 0 492.94 210.52
  L 489.97 210.49
  A 1.05 1.04 -51.7 0 1 489.73 208.43
  Q 491.40 208.03 493.03 208.20
  A 1.23 1.23 0.0 0 0 493.37 205.76
  Q 490.07 205.19 486.83 205.70
  A 0.77 0.77 0.0 0 0 486.18 206.46
  L 486.28 217.09
  Q 486.28 217.90 487.09 217.91
  L 493.66 218.04
  A 0.85 0.85 0.0 0 0 494.52 217.24
  Q 494.55 216.67 494.22 216.30
  Q 494.00 216.07 493.55 216.01
  Q 491.43 215.76 489.59 215.59
  A 1.15 1.15 0.0 0 1 489.48 213.31"
/>
<path stroke="#8fcfd9" vector-effect="non-scaling-stroke" d="
  M 504.32 211.80
  L 507.69 216.86
  A 0.65 0.65 0.0 0 0 508.78 216.84
  L 511.83 211.80
  A 0.30 0.30 0.0 0 1 512.37 211.87
  C 512.78 213.35 512.41 216.54 512.98 217.49
  Q 513.48 218.31 514.76 217.88
  A 1.04 1.02 77.8 0 0 515.45 216.79
  L 514.29 206.73
  A 1.46 1.46 0.0 0 0 511.51 206.28
  L 508.40 212.97
  Q 508.08 213.65 507.78 212.97
  L 504.92 206.52
  A 1.65 1.65 0.0 0 0 501.77 207.02
  L 500.76 217.20
  A 0.67 0.66 -85.3 0 0 501.37 217.93
  L 502.59 218.02
  Q 503.26 218.07 503.31 217.41
  L 503.75 211.95
  A 0.31 0.31 0.0 0 1 504.32 211.80"
/>
<path stroke="#8fcfd9" vector-effect="non-scaling-stroke" d="
  M 521.04 210.31
  L 520.77 208.58
  Q 520.62 207.56 521.64 207.67
  L 524.89 208.01
  A 0.58 0.58 0.0 0 0 525.52 207.32
  L 525.33 206.32
  Q 525.21 205.71 524.59 205.68
  L 519.64 205.44
  A 1.63 1.62 87.4 0 0 517.95 207.30
  Q 518.57 211.73 517.98 216.18
  A 1.64 1.64 0.0 0 0 519.64 218.04
  L 525.51 217.90
  A 0.89 0.88 45.7 0 0 525.53 216.13
  L 521.45 215.93
  A 0.75 0.75 0.0 0 1 520.74 215.10
  L 520.96 213.12
  Q 521.03 212.42 521.71 212.63
  L 523.52 213.20
  A 0.71 0.70 10.1 0 0 524.44 212.56
  L 524.50 211.19
  A 0.75 0.75 0.0 0 0 523.60 210.42
  L 521.73 210.79
  Q 521.13 210.91 521.04 210.31"
/>
<path stroke="#8fcfd9" vector-effect="non-scaling-stroke" d="
  M 534.91 211.80
  C 532.12 210.02 532.53 205.51 529.04 205.59
  Q 528.56 205.60 528.56 206.08
  L 528.47 217.18
  A 1.11 1.11 0.0 0 0 530.69 217.27
  L 531.09 212.24
  A 0.51 0.51 0.0 0 1 532.05 212.05
  L 534.90 217.51
  A 1.51 1.51 0.0 0 0 537.75 216.81
  L 537.75 206.45
  A 0.68 0.68 0.0 0 0 537.24 205.79
  Q 536.14 205.52 535.61 205.90
  Q 535.20 206.19 535.23 207.21
  Q 535.30 209.34 535.49 211.45
  Q 535.56 212.22 534.91 211.80"
/>
<path stroke="#8fcfd9" vector-effect="non-scaling-stroke" d="
  M 543.17 208.78
  L 543.04 217.19
  A 0.65 0.65 0.0 0 0 543.69 217.85
  L 545.01 217.85
  A 0.60 0.59 89.5 0 0 545.60 217.24
  L 545.46 208.80
  A 0.71 0.70 -7.1 0 1 546.01 208.10
  L 548.03 207.63
  A 1.08 1.08 0.0 0 0 547.79 205.50
  L 540.97 205.50
  Q 540.40 205.50 540.27 206.06
  C 539.89 207.73 541.39 208.04 542.75 208.27
  Q 543.18 208.35 543.17 208.78"
/>
<path stroke="#8fcfd9" vector-effect="non-scaling-stroke" d="
  M 555.30 208.64
  C 555.48 211.03 555.79 217.04 558.68 217.94
  A 0.77 0.77 0.0 0 0 559.63 216.95
  L 555.98 206.67
  A 1.82 1.82 0.0 0 0 552.56 206.66
  L 548.99 216.56
  A 1.12 1.12 0.0 0 0 550.97 217.58
  L 553.58 213.81
  Q 553.86 213.39 553.73 212.91
  Q 553.04 210.48 554.48 208.42
  A 0.45 0.45 0.0 0 1 555.30 208.64"
/>
<path stroke="#8fcfd9" vector-effect="non-scaling-stroke" d="
  M 267.7895 206.4120
  A 0.58 0.58 0.0 0 0 267.2105 205.8310
  L 266.0505 205.8290
  A 0.58 0.58 0.0 0 0 265.4695 206.4080
  L 265.4505 217.2680
  A 0.58 0.58 0.0 0 0 266.0295 217.8490
  L 267.1895 217.8510
  A 0.58 0.58 0.0 0 0 267.7705 217.2720
  L 267.7895 206.4120"
/>
<path stroke="#8fcfd9" vector-effect="non-scaling-stroke" d="
  M 561.95 206.54
  L 561.90 217.50
  A 0.60 0.59 88.3 0 0 562.54 218.11
  L 568.76 217.63
  A 0.73 0.73 0.0 0 0 568.75 216.18
  L 564.86 215.92
  Q 564.32 215.89 564.30 215.35
  Q 564.16 211.30 564.24 207.24
  Q 564.27 205.54 562.62 205.77
  A 0.78 0.77 86.2 0 0 561.95 206.54"
/>
<path stroke="#8fcfd9" vector-effect="non-scaling-stroke" d="
  M 338.95 211.88
  A 3.68 3.68 0.0 0 0 335.27 208.20
  A 3.68 3.68 0.0 0 0 331.59 211.88
  A 3.68 3.68 0.0 0 0 335.27 215.56
  A 3.68 3.68 0.0 0 0 338.95 211.88"
/>
<path stroke="#8fcfd9" vector-effect="non-scaling-stroke" d="
  M 454.0162 213.0045
  A 1.95 0.84 85.7 0 0 454.7076 210.9970
  A 1.95 0.84 85.7 0 0 453.7238 209.1155
  A 1.95 0.84 85.7 0 0 453.0324 211.1230
  A 1.95 0.84 85.7 0 0 454.0162 213.0045"
/>
<path stroke="#8fcfd9" vector-effect="non-scaling-stroke" d="
  M 155.1454 209.2885
  A 1.11 1.11 0.0 0 0 154.1343 208.0878
  L 152.6995 207.9648
  A 1.11 1.11 0.0 0 0 151.4988 208.9759
  L 151.3946 210.1915
  A 1.11 1.11 0.0 0 0 152.4057 211.3922
  L 153.8405 211.5152
  A 1.11 1.11 0.0 0 0 155.0412 210.5041
  L 155.1454 209.2885"
/>
<path stroke="#8fcfd9" vector-effect="non-scaling-stroke" d="
  M 169.83 211.88
  A 3.82 3.82 0.0 0 0 166.01 208.06
  A 3.82 3.82 0.0 0 0 162.19 211.88
  A 3.82 3.82 0.0 0 0 166.01 215.70
  A 3.82 3.82 0.0 0 0 169.83 211.88"
/>
<path stroke="#8fcfd9" vector-effect="non-scaling-stroke" d="
  M 181.21 209.09
  L 181.34 214.78
  A 1.28 1.28 0.0 0 0 182.64 216.03
  L 183.83 216.01
  A 3.25 3.02 -1.3 0 0 187.01 212.91
  L 186.96 210.70
  A 3.25 3.02 -1.3 0 0 183.65 207.75
  L 182.46 207.78
  A 1.28 1.28 0.0 0 0 181.21 209.09"
/>
<path stroke="#8fcfd9" vector-effect="non-scaling-stroke" d="
  M 208.98 208.38
  L 208.98 211.10
  A 0.88 0.88 0.0 0 0 209.85 211.99
  L 210.23 211.99
  A 3.02 1.67 0.2 0 0 213.26 210.33
  L 213.26 209.19
  A 3.02 1.67 0.2 0 0 210.25 207.51
  L 209.87 207.51
  A 0.88 0.88 0.0 0 0 208.98 208.38"
/>
<path stroke="#8fcfd9" vector-effect="non-scaling-stroke" d="
  M 244.80 213.95
  C 247.30 214.98 248.52 213.22 248.04 210.95
  C 246.55 203.85 236.15 210.53 242.25 215.04
  Q 242.77 215.42 243.20 214.95
  L 243.95 214.13
  Q 244.31 213.74 244.80 213.95"
/>
<path stroke="#8fcfd9" vector-effect="non-scaling-stroke" d="
  M 358.1902 213.3882
  A 2.19 1.13 70.8 0 0 358.5371 210.9484
  A 2.19 1.13 70.8 0 0 356.7498 209.2518
  A 2.19 1.13 70.8 0 0 356.4029 211.6916
  A 2.19 1.13 70.8 0 0 358.1902 213.3882"
/>
<path stroke="#8fcfd9" vector-effect="non-scaling-stroke" d="
  M 382.44 212.69
  L 382.82 209.76
  A 0.24 0.24 0.0 0 0 382.62 209.49
  L 382.49 209.47
  A 1.71 1.56 7.5 0 0 380.59 210.80
  L 380.55 211.11
  A 1.71 1.56 7.5 0 0 382.04 212.88
  L 382.17 212.90
  A 0.24 0.24 0.0 0 0 382.44 212.69"
/>
<path stroke="#8fcfd9" vector-effect="non-scaling-stroke" d="
  M 398.11 211.86
  A 3.81 3.81 0.0 0 0 394.30 208.05
  A 3.81 3.81 0.0 0 0 390.49 211.86
  A 3.81 3.81 0.0 0 0 394.30 215.67
  A 3.81 3.81 0.0 0 0 398.11 211.86"
/>
<path stroke="#8fcfd9" vector-effect="non-scaling-stroke" d="
  M 476.16 208.78
  L 476.14 214.84
  A 1.21 1.21 0.0 0 0 477.35 216.05
  L 477.72 216.05
  A 3.88 3.78 -89.9 0 0 481.51 212.17
  L 481.51 211.45
  A 3.88 3.78 -89.9 0 0 477.74 207.57
  L 477.37 207.57
  A 1.21 1.21 0.0 0 0 476.16 208.78"
/>
</g>
<path fill="#ffffff" d="
  M 0.00 0.00
  L 576.00 0.00
  L 576.00 238.00
  L 0.00 238.00
  L 0.00 0.00
  Z
  M 72.04 142.99
  C 42.92 126.76 32.64 90.86 49.90 62.11
  C 68.37 31.36 110.77 24.13 139.30 45.80
  C 155.08 57.78 171.19 34.75 154.49 22.98
  C 136.19 10.07 114.44 4.07 92.27 6.64
  C 30.74 13.76 -6.20 81.02 26.61 135.41
  Q 39.55 156.86 62.91 168.91
  A 0.97 0.96 22.6 0 0 64.27 168.35
  L 72.36 143.80
  Q 72.54 143.26 72.04 142.99
  Z
  M 71.03 124.46
  C 76.22 129.62 80.13 134.20 78.19 141.44
  Q 76.74 146.85 70.37 165.40
  C 68.38 171.20 66.16 175.31 60.49 176.98
  Q 47.10 180.91 41.69 191.76
  C 35.51 204.15 39.04 219.45 50.75 227.28
  C 74.39 243.09 102.90 218.11 91.27 192.45
  C 87.23 183.53 81.56 182.44 84.92 171.45
  Q 91.05 151.34 93.33 146.07
  C 98.06 135.11 108.40 138.12 117.28 134.58
  Q 141.04 125.11 146.11 99.63
  C 147.21 94.11 145.55 88.16 148.52 83.24
  C 151.14 78.92 154.37 77.70 158.80 75.68
  Q 172.51 69.41 186.33 63.39
  C 194.18 59.97 197.85 65.04 205.23 65.67
  C 227.10 67.53 236.21 38.94 217.37 27.59
  C 209.02 22.56 197.30 24.96 191.20 32.97
  C 189.26 35.52 188.17 38.91 186.78 41.99
  C 184.65 46.70 182.02 47.98 177.55 50.04
  Q 163.14 56.67 148.53 62.84
  C 139.49 66.65 134.94 61.28 128.19 56.35
  C 102.47 37.54 67.65 49.12 59.03 79.74
  Q 51.82 105.37 71.03 124.46
  Z
  M 265.99 146.36
  C 261.76 141.59 259.65 132.83 251.28 133.54
  C 240.02 134.49 236.04 144.44 240.54 153.94
  C 253.16 180.61 285.00 186.57 311.00 179.51
  C 327.78 174.95 340.69 164.39 343.13 146.51
  C 346.38 122.67 330.77 105.96 308.50 100.52
  C 299.96 98.43 274.69 93.27 271.28 87.48
  C 266.37 79.13 270.13 70.74 279.07 67.86
  C 293.75 63.12 304.36 68.29 315.78 77.23
  C 325.15 84.57 337.89 76.42 335.74 65.15
  C 333.35 52.64 316.99 43.27 305.53 40.83
  C 284.95 36.46 259.35 41.17 246.76 59.83
  C 236.70 74.75 239.28 97.83 253.95 109.31
  C 267.23 119.70 281.76 122.18 300.21 126.89
  Q 305.61 128.26 309.25 130.48
  C 319.71 136.85 315.17 150.15 305.36 154.26
  C 292.46 159.67 275.68 157.31 265.99 146.36
  Z
  M 462.53 58.41
  C 429.64 26.35 372.26 39.48 361.71 86.36
  Q 360.26 92.80 360.25 106.24
  Q 360.23 134.76 360.27 163.28
  Q 360.27 169.13 361.46 171.91
  C 367.85 186.77 390.19 181.29 390.22 165.93
  Q 390.28 134.04 390.25 102.15
  Q 390.24 94.55 391.59 90.50
  C 400.46 63.80 437.87 64.87 445.79 91.42
  Q 447.26 96.35 447.26 107.24
  Q 447.26 135.85 447.22 164.49
  C 447.19 186.59 478.53 185.89 478.72 165.25
  Q 478.94 142.02 478.62 105.90
  Q 478.54 96.76 479.54 92.81
  C 486.64 64.78 525.92 63.23 534.47 91.35
  Q 535.78 95.66 535.76 103.31
  Q 535.72 132.55 535.77 161.80
  Q 535.79 168.48 536.96 171.42
  C 543.16 187.03 565.77 181.95 565.77 165.00
  Q 565.78 136.40 565.74 107.82
  Q 565.71 94.08 564.48 87.90
  C 554.88 39.92 496.56 25.85 463.31 58.41
  Q 462.92 58.79 462.53 58.41
  Z
  M 220.98 87.84
  A 13.82 13.82 0.0 0 0 207.16 74.02
  L 206.32 74.02
  A 13.82 13.82 0.0 0 0 192.50 87.84
  L 192.50 160.88
  A 13.82 13.82 0.0 0 0 206.32 174.70
  L 207.16 174.70
  A 13.82 13.82 0.0 0 0 220.98 160.88
  L 220.98 87.84
  Z
  M 160.14 154.78
  C 165.42 143.97 156.10 132.50 144.44 135.62
  Q 142.17 136.22 137.02 139.75
  Q 119.44 151.81 97.47 150.61
  Q 96.90 150.58 96.72 151.13
  L 88.67 175.43
  A 1.27 1.27 0.0 0 0 89.72 177.09
  Q 124.65 181.38 153.02 162.01
  Q 158.40 158.34 160.14 154.78
  Z
  M 464.8516 204.2872
  A 1.74 1.09 131.3 0 0 466.8189 203.6994
  A 1.74 1.09 131.3 0 0 467.1484 201.6728
  A 1.74 1.09 131.3 0 0 465.1811 202.2606
  A 1.74 1.09 131.3 0 0 464.8516 204.2872
  Z
  M 383.36 202.60
  L 379.65 202.91
  A 0.28 0.28 0.0 0 0 379.40 203.21
  L 379.41 203.38
  A 1.98 1.51 -4.8 0 0 381.51 204.72
  L 381.83 204.69
  A 1.98 1.51 -4.8 0 0 383.68 203.02
  L 383.66 202.85
  A 0.28 0.28 0.0 0 0 383.36 202.60
  Z
  M 108.19 208.29
  Q 110.23 207.69 112.10 209.13
  Q 112.56 209.48 113.08 209.22
  Q 114.14 208.67 113.60 207.32
  Q 113.46 206.96 113.18 206.72
  C 107.35 201.75 99.56 210.17 104.65 216.18
  C 106.59 218.48 114.07 219.93 113.70 214.91
  A 0.92 0.92 0.0 0 0 112.10 214.35
  C 107.46 219.43 102.48 209.95 108.19 208.29
  Z
  M 118.46 214.81
  Q 119.16 212.46 121.77 212.81
  A 1.05 1.05 0.0 0 0 122.26 210.78
  Q 121.03 210.35 119.79 210.52
  Q 119.25 210.59 118.99 210.11
  L 118.61 209.40
  Q 118.33 208.88 118.84 208.61
  Q 120.34 207.82 122.03 208.05
  A 1.23 1.23 0.0 0 0 122.46 205.63
  Q 119.88 205.08 117.06 205.49
  A 1.50 1.50 0.0 0 0 115.78 206.95
  L 115.61 216.81
  A 1.20 1.19 -89.8 0 0 116.81 218.03
  L 123.55 217.94
  A 0.83 0.83 0.0 0 0 123.68 216.29
  L 118.91 215.52
  A 0.57 0.56 13.2 0 1 118.46 214.81
  Z
  M 140.51 208.69
  L 140.72 217.26
  Q 140.74 217.88 141.30 218.12
  Q 142.28 218.55 143.23 217.87
  Q 143.63 217.58 143.62 217.08
  L 143.45 208.78
  Q 143.44 208.25 143.97 208.25
  L 145.75 208.25
  A 0.69 0.69 0.0 0 0 146.44 207.58
  L 146.51 205.86
  Q 146.52 205.38 146.04 205.39
  L 138.12 205.62
  A 0.97 0.97 0.0 0 0 137.94 207.54
  L 139.94 207.99
  A 0.74 0.73 6.1 0 1 140.51 208.69
  Z
  M 341.64 211.76
  A 6.42 6.42 0.0 0 0 335.22 205.34
  A 6.42 6.42 0.0 0 0 328.80 211.76
  A 6.42 6.42 0.0 0 0 335.22 218.18
  A 6.42 6.42 0.0 0 0 341.64 211.76
  Z
  M 442.72 207.86
  L 445.77 208.84
  A 0.73 0.73 0.0 0 0 446.68 207.88
  C 445.30 204.32 438.94 204.72 438.50 208.24
  C 438.01 212.14 441.66 212.26 444.18 213.63
  A 1.19 1.19 0.0 0 1 443.96 215.81
  Q 442.04 216.40 440.89 215.09
  Q 440.55 214.72 440.12 214.46
  Q 438.97 213.78 438.45 214.82
  A 0.93 0.92 43.5 0 0 438.48 215.71
  C 441.69 221.04 449.90 216.77 446.85 212.76
  C 445.78 211.35 442.91 210.38 441.24 209.65
  A 0.54 0.54 0.0 0 1 441.09 208.76
  L 441.87 208.05
  A 0.87 0.87 0.0 0 1 442.72 207.86
  Z
  M 456.37 215.71
  Q 456.44 216.99 457.39 217.86
  A 1.01 1.00 -37.9 0 0 458.56 218.00
  Q 459.45 217.51 459.17 216.52
  Q 457.81 211.74 455.88 207.16
  Q 454.70 204.38 452.37 206.06
  A 1.23 1.20 -9.8 0 0 451.94 206.65
  L 448.51 216.67
  Q 448.33 217.21 448.73 217.63
  Q 449.45 218.36 450.42 217.88
  C 451.16 217.52 451.33 216.65 451.54 216.14
  A 2.79 2.14 -42.6 0 1 456.37 215.71
  Z
  M 468.48 205.84
  C 468.23 208.54 469.32 216.20 465.54 215.96
  A 2.07 2.05 -2.6 0 1 463.64 214.24
  Q 463.10 210.99 463.53 208.26
  Q 463.88 206.09 462.24 205.50
  A 0.86 0.86 0.0 0 0 461.10 206.17
  C 460.48 209.82 459.80 217.38 465.12 218.14
  C 471.96 219.11 470.92 209.55 470.11 205.74
  A 0.83 0.82 -48.4 0 0 468.48 205.84
  Z
  M 131.91 211.42
  C 130.87 209.80 129.51 204.84 126.85 205.68
  Q 126.29 205.86 126.30 206.45
  L 126.56 216.98
  A 1.29 1.29 0.0 0 0 129.14 217.00
  L 129.30 212.78
  A 0.53 0.53 0.0 0 1 130.31 212.56
  L 132.88 217.66
  A 1.41 1.40 30.6 0 0 135.54 216.98
  Q 135.37 212.32 135.63 207.18
  Q 135.67 206.41 135.37 206.02
  Q 134.90 205.43 134.00 205.52
  A 1.19 1.19 0.0 0 0 132.93 206.63
  L 132.67 211.22
  A 0.41 0.41 0.0 0 1 131.91 211.42
  Z
  M 151.55 214.42
  Q 152.51 214.05 153.24 214.61
  C 154.16 215.32 154.10 216.80 155.44 217.97
  A 1.14 1.14 0.0 0 0 157.21 216.62
  L 155.82 213.71
  Q 155.55 213.14 155.99 212.68
  C 157.45 211.13 159.40 210.40 157.92 207.81
  C 156.22 204.83 152.65 205.43 149.92 205.52
  A 1.47 1.47 0.0 0 0 148.50 206.99
  L 148.50 216.79
  A 1.46 1.46 0.0 0 0 151.39 217.06
  Q 151.56 216.19 151.18 215.25
  A 0.64 0.63 -21.2 0 1 151.55 214.42
  Z
  M 172.32 211.82
  A 6.34 6.34 0.0 0 0 165.98 205.48
  A 6.34 6.34 0.0 0 0 159.64 211.82
  A 6.34 6.34 0.0 0 0 165.98 218.16
  A 6.34 6.34 0.0 0 0 172.32 211.82
  Z
  M 179.06 207.62
  L 179.06 215.90
  A 2.13 2.13 0.0 0 0 181.19 218.03
  L 183.93 218.03
  A 5.64 5.55 90.0 0 0 189.48 212.39
  L 189.48 211.13
  A 5.64 5.55 -90.0 0 0 183.93 205.49
  L 181.19 205.49
  A 2.13 2.13 0.0 0 0 179.06 207.62
  Z
  M 194.48 214.40
  L 194.87 213.24
  A 0.76 0.76 0.0 0 1 195.71 212.73
  L 197.85 213.08
  Q 198.59 213.20 198.66 212.46
  L 198.77 211.42
  Q 198.84 210.75 198.16 210.75
  L 195.90 210.75
  A 1.39 1.38 -58.6 0 1 195.27 208.13
  Q 196.77 207.36 198.50 207.94
  Q 199.00 208.10 199.18 207.62
  L 199.52 206.74
  Q 199.78 206.04 199.06 205.88
  Q 195.74 205.13 192.41 205.74
  A 0.61 0.60 -5.2 0 0 191.91 206.33
  L 191.91 217.25
  A 0.65 0.65 0.0 0 0 192.56 217.90
  L 199.76 217.97
  A 0.89 0.89 0.0 0 0 199.83 216.19
  L 195.49 215.90
  A 1.15 1.14 -79.0 0 1 194.48 214.40
  Z
  M 209.39 214.07
  C 210.87 213.95 212.45 214.10 213.68 213.27
  C 216.78 211.17 216.54 206.70 212.68 205.76
  Q 210.73 205.28 208.30 205.57
  A 1.75 1.75 0.0 0 0 206.75 207.31
  L 206.75 217.37
  Q 206.75 218.00 207.37 218.00
  L 208.55 218.00
  Q 209.11 218.00 209.04 217.45
  L 208.74 214.86
  A 0.71 0.70 84.6 0 1 209.39 214.07
  Z
  M 220.54 210.48
  L 220.54 208.14
  A 0.69 0.69 0.0 0 1 221.33 207.46
  L 224.86 208.03
  A 0.59 0.59 0.0 0 0 225.54 207.36
  L 225.35 206.10
  A 0.73 0.72 -4.1 0 0 224.63 205.48
  L 218.91 205.54
  A 0.75 0.74 0.4 0 0 218.16 206.27
  L 217.94 217.22
  Q 217.92 217.96 218.66 217.97
  L 225.12 218.01
  Q 225.75 218.02 225.75 217.38
  L 225.75 216.50
  Q 225.75 216.01 225.25 216.01
  L 220.92 215.99
  A 0.68 0.67 1.6 0 1 220.25 215.29
  L 220.31 213.63
  Q 220.33 213.15 220.81 213.10
  L 224.10 212.77
  A 0.93 0.93 0.0 0 0 224.31 210.97
  Q 222.79 210.44 221.31 211.01
  Q 220.54 211.30 220.54 210.48
  Z
  M 233.28 213.49
  A 1.53 1.53 0.0 0 1 232.21 216.35
  Q 230.29 215.82 229.20 214.27
  A 0.66 0.66 0.0 0 0 228.26 214.12
  Q 227.69 214.54 227.67 215.22
  C 227.56 218.33 234.00 219.35 235.72 216.33
  C 238.01 212.33 233.14 211.11 230.71 210.05
  A 1.24 1.23 -66.5 0 1 230.07 208.42
  Q 230.49 207.48 231.46 207.43
  C 232.66 207.38 233.46 208.68 234.42 208.86
  A 1.27 1.27 0.0 0 0 235.20 206.47
  C 232.56 205.18 228.42 204.89 227.75 208.35
  C 227.08 211.85 230.98 212.38 233.28 213.49
  Z
  M 248.86 216.51
  C 254.90 207.20 242.64 201.21 238.73 208.75
  C 236.08 213.86 240.21 218.48 245.69 218.25
  A 1.17 1.17 0.0 0 1 246.44 218.50
  L 248.03 219.79
  A 0.64 0.64 0.0 0 0 249.06 219.18
  L 248.71 217.27
  Q 248.64 216.86 248.86 216.51
  Z
  M 255.44 217.56
  C 263.51 221.25 262.85 210.40 262.73 206.26
  Q 262.71 205.55 262.00 205.59
  L 260.72 205.65
  Q 260.05 205.68 260.05 206.34
  L 260.02 214.05
  A 2.00 1.99 1.9 0 1 257.90 216.03
  C 254.27 215.81 255.20 209.11 255.10 206.57
  Q 255.04 205.20 253.92 205.57
  A 1.35 1.35 0.0 0 0 253.00 206.81
  C 252.92 209.67 252.13 216.05 255.44 217.56
  Z
  M 276.12 215.65
  A 1.56 1.56 0.0 0 1 273.85 215.99
  L 271.72 214.30
  Q 271.33 213.99 270.97 214.32
  Q 269.82 215.36 270.81 216.51
  C 273.55 219.69 278.40 218.38 279.22 213.93
  A 0.98 0.98 0.0 0 0 278.94 213.04
  Q 276.55 210.70 273.30 209.92
  A 0.81 0.80 -49.3 0 1 273.19 208.39
  Q 275.42 207.47 277.28 209.09
  A 0.53 0.52 -61.9 0 0 278.13 208.83
  L 278.52 207.39
  A 0.85 0.83 -67.7 0 0 278.13 206.44
  C 274.71 204.44 268.28 205.94 270.85 211.08
  A 1.17 1.16 -5.2 0 0 271.58 211.68
  C 273.19 212.15 277.78 213.23 276.12 215.65
  Z
  M 283.91 206.51
  L 281.34 214.16
  Q 281.17 214.68 280.81 215.09
  Q 279.93 216.11 280.36 217.41
  A 1.04 1.04 0.0 0 0 282.11 217.78
  L 285.40 214.17
  A 0.75 0.75 0.0 0 0 285.46 213.23
  Q 284.49 211.87 284.76 210.21
  Q 284.84 209.73 285.10 209.56
  Q 285.45 209.33 285.97 209.59
  A 0.85 0.83 16.3 0 1 286.43 210.41
  C 286.27 212.51 287.49 219.28 291.11 217.56
  Q 291.60 217.33 291.41 216.83
  L 287.52 206.45
  A 1.92 1.92 0.0 0 0 283.91 206.51
  Z
  M 300.64 207.86
  Q 301.99 207.53 303.82 207.83
  A 1.03 1.02 56.1 0 0 304.21 205.82
  Q 301.03 205.10 297.85 205.78
  Q 297.32 205.89 297.27 206.43
  Q 296.56 214.18 297.06 216.70
  Q 297.36 218.19 298.84 218.11
  C 300.57 218.01 301.67 218.08 303.06 217.99
  A 5.50 4.74 30.8 0 0 304.03 217.82
  Q 306.13 217.23 304.67 215.96
  A 0.43 0.38 64.1 0 0 304.45 215.87
  L 300.08 215.69
  A 0.61 0.61 0.0 0 1 299.49 215.08
  L 299.52 213.09
  A 0.63 0.62 14.0 0 1 300.43 212.55
  Q 301.80 213.25 303.28 212.77
  A 1.06 1.06 0.0 0 0 302.99 210.71
  Q 301.98 210.67 300.98 210.90
  A 1.62 1.43 -54.9 0 1 300.64 207.86
  Z
  M 314.2794 206.1702
  A 0.47 0.47 0.0 0 0 313.8136 205.6961
  L 312.4736 205.6844
  A 0.47 0.47 0.0 0 0 311.9995 206.1503
  L 311.9006 217.4898
  A 0.47 0.47 0.0 0 0 312.3664 217.9639
  L 313.7064 217.9756
  A 0.47 0.47 0.0 0 0 314.1805 217.5097
  L 314.2794 206.1702
  Z
  M 320.40 211.77
  Q 322.55 214.02 323.36 217.00
  A 0.87 0.85 84.3 0 0 324.13 217.64
  L 326.33 217.79
  Q 327.00 217.83 327.00 217.16
  L 327.00 207.00
  A 1.47 1.47 0.0 0 0 325.04 205.62
  C 323.24 206.26 324.21 209.68 324.55 211.05
  A 0.50 0.50 0.0 0 1 323.77 211.57
  C 321.33 209.76 321.15 204.95 317.87 205.80
  A 0.73 0.73 0.0 0 0 317.33 206.49
  Q 317.20 211.53 317.22 216.68
  A 1.27 1.26 -45.2 0 0 319.75 216.67
  L 319.75 212.03
  A 0.38 0.38 0.0 0 1 320.40 211.77
  Z
  M 347.03 212.48
  C 346.48 210.74 345.89 205.47 343.43 205.55
  A 0.91 0.91 0.0 0 0 342.58 206.72
  L 345.55 216.82
  A 1.70 1.70 0.0 0 0 348.80 216.84
  L 351.74 207.24
  A 1.27 1.27 0.0 0 0 349.75 205.87
  C 348.53 206.83 347.92 210.83 347.74 212.41
  A 0.37 0.36 39.3 0 1 347.03 212.48
  Z
  M 356.05 205.95
  L 352.13 216.51
  A 1.20 1.20 0.0 0 0 354.15 217.73
  L 356.59 214.97
  A 1.75 1.75 0.0 0 1 359.50 215.42
  Q 360.36 217.36 362.30 217.92
  A 0.83 0.82 -3.4 0 0 363.29 216.81
  Q 361.41 212.39 360.00 207.83
  C 359.38 205.83 358.36 204.78 356.16 205.83
  A 0.23 0.21 -4.4 0 0 356.05 205.95
  Z
  M 371.93 218.44
  L 375.49 215.95
  A 0.89 0.89 0.0 0 0 374.69 214.38
  L 370.78 215.68
  Q 370.37 215.82 369.95 215.71
  C 363.73 214.13 367.40 204.58 373.90 209.11
  A 0.57 0.56 36.4 0 0 374.68 209.00
  C 375.37 208.13 375.08 207.09 374.13 206.51
  C 365.26 201.04 359.51 215.25 369.43 218.33
  A 0.48 0.47 -57.0 0 1 369.60 219.14
  L 368.39 220.22
  A 0.95 0.94 -55.1 0 0 368.67 221.81
  Q 369.96 222.32 371.06 221.59
  A 0.98 0.98 0.0 0 0 371.50 220.77
  L 371.50 219.26
  Q 371.50 218.74 371.93 218.44
  Z
  M 380.07 206.15
  Q 377.74 210.67 376.91 215.43
  Q 376.81 215.96 376.09 216.49
  Q 375.61 216.84 376.06 217.22
  C 378.01 218.87 379.40 216.24 380.22 214.90
  A 0.81 0.81 0.0 0 1 381.08 214.53
  C 383.95 215.10 383.40 216.60 385.23 217.80
  Q 386.28 218.50 387.05 217.49
  A 0.98 0.96 -37.8 0 0 387.18 216.55
  L 383.08 206.30
  A 1.66 1.65 47.8 0 0 380.07 206.15
  Z
  M 400.69 211.79
  A 6.36 6.36 0.0 0 0 394.33 205.43
  A 6.36 6.36 0.0 0 0 387.97 211.79
  A 6.36 6.36 0.0 0 0 394.33 218.15
  A 6.36 6.36 0.0 0 0 400.69 211.79
  Z
  M 407.34 206.96
  C 407.14 210.00 407.35 213.01 407.13 216.04
  C 406.93 218.99 413.10 217.98 414.99 217.87
  A 0.86 0.86 0.0 0 0 415.02 216.15
  L 410.81 215.78
  Q 410.14 215.72 410.03 215.06
  L 409.75 213.48
  A 0.63 0.62 85.3 0 1 410.36 212.75
  L 412.85 212.75
  Q 413.35 212.75 413.75 212.45
  Q 414.71 211.73 413.69 211.00
  Q 413.34 210.75 412.91 210.75
  L 410.96 210.75
  A 1.37 1.37 0.0 0 1 410.79 208.03
  L 414.24 207.60
  Q 414.60 207.56 414.73 207.22
  Q 415.33 205.78 413.84 205.61
  Q 411.33 205.32 408.57 205.66
  Q 407.42 205.81 407.34 206.96
  Z
  M 421.58 211.69
  Q 422.06 214.52 424.05 216.46
  A 0.99 0.99 0.0 0 0 425.58 216.27
  L 428.47 211.61
  Q 428.83 211.04 428.90 211.71
  L 429.48 217.35
  Q 429.55 217.95 430.16 217.97
  L 431.27 218.01
  Q 432.08 218.04 432.00 217.23
  L 430.89 206.68
  A 0.74 0.73 19.5 0 0 430.68 206.25
  Q 429.14 204.66 428.27 206.19
  Q 426.39 209.48 425.14 213.09
  Q 424.91 213.74 424.59 213.13
  L 421.15 206.40
  A 1.50 1.49 -56.0 0 0 418.33 206.95
  L 417.45 216.98
  A 1.24 1.24 0.0 0 0 419.89 217.35
  Q 420.40 215.01 420.45 211.78
  A 0.57 0.57 0.0 0 1 421.58 211.69
  Z
  M 473.50 207.32
  L 473.50 216.30
  A 1.88 1.88 0.0 0 0 475.38 218.18
  L 478.21 218.18
  A 6.21 6.01 90.0 0 0 484.22 211.97
  L 484.22 211.65
  A 6.21 6.01 -90.0 0 0 478.21 205.44
  L 475.38 205.44
  A 1.88 1.88 0.0 0 0 473.50 207.32
  Z
  M 489.48 213.31
  L 492.50 212.76
  A 1.30 0.97 -42.0 0 0 492.94 210.52
  L 489.97 210.49
  A 1.05 1.04 -51.7 0 1 489.73 208.43
  Q 491.40 208.03 493.03 208.20
  A 1.23 1.23 0.0 0 0 493.37 205.76
  Q 490.07 205.19 486.83 205.70
  A 0.77 0.77 0.0 0 0 486.18 206.46
  L 486.28 217.09
  Q 486.28 217.90 487.09 217.91
  L 493.66 218.04
  A 0.85 0.85 0.0 0 0 494.52 217.24
  Q 494.55 216.67 494.22 216.30
  Q 494.00 216.07 493.55 216.01
  Q 491.43 215.76 489.59 215.59
  A 1.15 1.15 0.0 0 1 489.48 213.31
  Z
  M 504.32 211.80
  L 507.69 216.86
  A 0.65 0.65 0.0 0 0 508.78 216.84
  L 511.83 211.80
  A 0.30 0.30 0.0 0 1 512.37 211.87
  C 512.78 213.35 512.41 216.54 512.98 217.49
  Q 513.48 218.31 514.76 217.88
  A 1.04 1.02 77.8 0 0 515.45 216.79
  L 514.29 206.73
  A 1.46 1.46 0.0 0 0 511.51 206.28
  L 508.40 212.97
  Q 508.08 213.65 507.78 212.97
  L 504.92 206.52
  A 1.65 1.65 0.0 0 0 501.77 207.02
  L 500.76 217.20
  A 0.67 0.66 -85.3 0 0 501.37 217.93
  L 502.59 218.02
  Q 503.26 218.07 503.31 217.41
  L 503.75 211.95
  A 0.31 0.31 0.0 0 1 504.32 211.80
  Z
  M 521.04 210.31
  L 520.77 208.58
  Q 520.62 207.56 521.64 207.67
  L 524.89 208.01
  A 0.58 0.58 0.0 0 0 525.52 207.32
  L 525.33 206.32
  Q 525.21 205.71 524.59 205.68
  L 519.64 205.44
  A 1.63 1.62 87.4 0 0 517.95 207.30
  Q 518.57 211.73 517.98 216.18
  A 1.64 1.64 0.0 0 0 519.64 218.04
  L 525.51 217.90
  A 0.89 0.88 45.7 0 0 525.53 216.13
  L 521.45 215.93
  A 0.75 0.75 0.0 0 1 520.74 215.10
  L 520.96 213.12
  Q 521.03 212.42 521.71 212.63
  L 523.52 213.20
  A 0.71 0.70 10.1 0 0 524.44 212.56
  L 524.50 211.19
  A 0.75 0.75 0.0 0 0 523.60 210.42
  L 521.73 210.79
  Q 521.13 210.91 521.04 210.31
  Z
  M 534.91 211.80
  C 532.12 210.02 532.53 205.51 529.04 205.59
  Q 528.56 205.60 528.56 206.08
  L 528.47 217.18
  A 1.11 1.11 0.0 0 0 530.69 217.27
  L 531.09 212.24
  A 0.51 0.51 0.0 0 1 532.05 212.05
  L 534.90 217.51
  A 1.51 1.51 0.0 0 0 537.75 216.81
  L 537.75 206.45
  A 0.68 0.68 0.0 0 0 537.24 205.79
  Q 536.14 205.52 535.61 205.90
  Q 535.20 206.19 535.23 207.21
  Q 535.30 209.34 535.49 211.45
  Q 535.56 212.22 534.91 211.80
  Z
  M 543.17 208.78
  L 543.04 217.19
  A 0.65 0.65 0.0 0 0 543.69 217.85
  L 545.01 217.85
  A 0.60 0.59 89.5 0 0 545.60 217.24
  L 545.46 208.80
  A 0.71 0.70 -7.1 0 1 546.01 208.10
  L 548.03 207.63
  A 1.08 1.08 0.0 0 0 547.79 205.50
  L 540.97 205.50
  Q 540.40 205.50 540.27 206.06
  C 539.89 207.73 541.39 208.04 542.75 208.27
  Q 543.18 208.35 543.17 208.78
  Z
  M 555.30 208.64
  C 555.48 211.03 555.79 217.04 558.68 217.94
  A 0.77 0.77 0.0 0 0 559.63 216.95
  L 555.98 206.67
  A 1.82 1.82 0.0 0 0 552.56 206.66
  L 548.99 216.56
  A 1.12 1.12 0.0 0 0 550.97 217.58
  L 553.58 213.81
  Q 553.86 213.39 553.73 212.91
  Q 553.04 210.48 554.48 208.42
  A 0.45 0.45 0.0 0 1 555.30 208.64
  Z
  M 267.7895 206.4120
  A 0.58 0.58 0.0 0 0 267.2105 205.8310
  L 266.0505 205.8290
  A 0.58 0.58 0.0 0 0 265.4695 206.4080
  L 265.4505 217.2680
  A 0.58 0.58 0.0 0 0 266.0295 217.8490
  L 267.1895 217.8510
  A 0.58 0.58 0.0 0 0 267.7705 217.2720
  L 267.7895 206.4120
  Z
  M 561.95 206.54
  L 561.90 217.50
  A 0.60 0.59 88.3 0 0 562.54 218.11
  L 568.76 217.63
  A 0.73 0.73 0.0 0 0 568.75 216.18
  L 564.86 215.92
  Q 564.32 215.89 564.30 215.35
  Q 564.16 211.30 564.24 207.24
  Q 564.27 205.54 562.62 205.77
  A 0.78 0.77 86.2 0 0 561.95 206.54
  Z"
/>
<path fill="#3ecae3" d="
  M 72.04 142.99
  Q 72.54 143.26 72.36 143.80
  L 64.27 168.35
  A 0.97 0.96 22.6 0 1 62.91 168.91
  Q 39.55 156.86 26.61 135.41
  C -6.20 81.02 30.74 13.76 92.27 6.64
  C 114.44 4.07 136.19 10.07 154.49 22.98
  C 171.19 34.75 155.08 57.78 139.30 45.80
  C 110.77 24.13 68.37 31.36 49.90 62.11
  C 32.64 90.86 42.92 126.76 72.04 142.99
  Z"
/>
<path fill="#16a2f7" d="
  M 71.03 124.46
  Q 51.82 105.37 59.03 79.74
  C 67.65 49.12 102.47 37.54 128.19 56.35
  C 134.94 61.28 139.49 66.65 148.53 62.84
  Q 163.14 56.67 177.55 50.04
  C 182.02 47.98 184.65 46.70 186.78 41.99
  C 188.17 38.91 189.26 35.52 191.20 32.97
  C 197.30 24.96 209.02 22.56 217.37 27.59
  C 236.21 38.94 227.10 67.53 205.23 65.67
  C 197.85 65.04 194.18 59.97 186.33 63.39
  Q 172.51 69.41 158.80 75.68
  C 154.37 77.70 151.14 78.92 148.52 83.24
  C 145.55 88.16 147.21 94.11 146.11 99.63
  Q 141.04 125.11 117.28 134.58
  C 108.40 138.12 98.06 135.11 93.33 146.07
  Q 91.05 151.34 84.92 171.45
  C 81.56 182.44 87.23 183.53 91.27 192.45
  C 102.90 218.11 74.39 243.09 50.75 227.28
  C 39.04 219.45 35.51 204.15 41.69 191.76
  Q 47.10 180.91 60.49 176.98
  C 66.16 175.31 68.38 171.20 70.37 165.40
  Q 76.74 146.85 78.19 141.44
  C 80.13 134.20 76.22 129.62 71.03 124.46
  Z"
/>
<path fill="#3ecae3" d="
  M 251.28 133.54
  C 259.65 132.83 261.76 141.59 265.99 146.36
  C 275.68 157.31 292.46 159.67 305.36 154.26
  C 315.17 150.15 319.71 136.85 309.25 130.48
  Q 305.61 128.26 300.21 126.89
  C 281.76 122.18 267.23 119.70 253.95 109.31
  C 239.28 97.83 236.70 74.75 246.76 59.83
  C 259.35 41.17 284.95 36.46 305.53 40.83
  C 316.99 43.27 333.35 52.64 335.74 65.15
  C 337.89 76.42 325.15 84.57 315.78 77.23
  C 304.36 68.29 293.75 63.12 279.07 67.86
  C 270.13 70.74 266.37 79.13 271.28 87.48
  C 274.69 93.27 299.96 98.43 308.50 100.52
  C 330.77 105.96 346.38 122.67 343.13 146.51
  C 340.69 164.39 327.78 174.95 311.00 179.51
  C 285.00 186.57 253.16 180.61 240.54 153.94
  C 236.04 144.44 240.02 134.49 251.28 133.54
  Z"
/>
<path fill="#3ecae3" d="
  M 463.31 58.41
  C 496.56 25.85 554.88 39.92 564.48 87.90
  Q 565.71 94.08 565.74 107.82
  Q 565.78 136.40 565.77 165.00
  C 565.77 181.95 543.16 187.03 536.96 171.42
  Q 535.79 168.48 535.77 161.80
  Q 535.72 132.55 535.76 103.31
  Q 535.78 95.66 534.47 91.35
  C 525.92 63.23 486.64 64.78 479.54 92.81
  Q 478.54 96.76 478.62 105.90
  Q 478.94 142.02 478.72 165.25
  C 478.53 185.89 447.19 186.59 447.22 164.49
  Q 447.26 135.85 447.26 107.24
  Q 447.26 96.35 445.79 91.42
  C 437.87 64.87 400.46 63.80 391.59 90.50
  Q 390.24 94.55 390.25 102.15
  Q 390.28 134.04 390.22 165.93
  C 390.19 181.29 367.85 186.77 361.46 171.91
  Q 360.27 169.13 360.27 163.28
  Q 360.23 134.76 360.25 106.24
  Q 360.26 92.80 361.71 86.36
  C 372.26 39.48 429.64 26.35 462.53 58.41
  Q 462.92 58.79 463.31 58.41
  Z"
/>
<rect fill="#3ecae3" x="192.50" y="74.02" width="28.48" height="100.68" rx="13.82"/>
<path fill="#3ecae3" d="
  M 144.44 135.62
  C 156.10 132.50 165.42 143.97 160.14 154.78
  Q 158.40 158.34 153.02 162.01
  Q 124.65 181.38 89.72 177.09
  A 1.27 1.27 0.0 0 1 88.67 175.43
  L 96.72 151.13
  Q 96.90 150.58 97.47 150.61
  Q 119.44 151.81 137.02 139.75
  Q 142.17 136.22 144.44 135.62
  Z"
/>
<ellipse fill="#1f9fb3" cx="0.00" cy="0.00" transform="translate(466.00,202.98) rotate(131.3)" rx="1.74" ry="1.09"/>
<path fill="#1f9fb3" d="
  M 383.36 202.60
  A 0.28 0.28 0.0 0 1 383.66 202.85
  L 383.68 203.02
  A 1.98 1.51 -4.8 0 1 381.83 204.69
  L 381.51 204.72
  A 1.98 1.51 -4.8 0 1 379.41 203.38
  L 379.40 203.21
  A 0.28 0.28 0.0 0 1 379.65 202.91
  L 383.36 202.60
  Z"
/>
<path fill="#1f9fb3" d="
  M 108.19 208.29
  C 102.48 209.95 107.46 219.43 112.10 214.35
  A 0.92 0.92 0.0 0 1 113.70 214.91
  C 114.07 219.93 106.59 218.48 104.65 216.18
  C 99.56 210.17 107.35 201.75 113.18 206.72
  Q 113.46 206.96 113.60 207.32
  Q 114.14 208.67 113.08 209.22
  Q 112.56 209.48 112.10 209.13
  Q 110.23 207.69 108.19 208.29
  Z"
/>
<path fill="#1f9fb3" d="
  M 118.91 215.52
  L 123.68 216.29
  A 0.83 0.83 0.0 0 1 123.55 217.94
  L 116.81 218.03
  A 1.20 1.19 -89.8 0 1 115.61 216.81
  L 115.78 206.95
  A 1.50 1.50 0.0 0 1 117.06 205.49
  Q 119.88 205.08 122.46 205.63
  A 1.23 1.23 0.0 0 1 122.03 208.05
  Q 120.34 207.82 118.84 208.61
  Q 118.33 208.88 118.61 209.40
  L 118.99 210.11
  Q 119.25 210.59 119.79 210.52
  Q 121.03 210.35 122.26 210.78
  A 1.05 1.05 0.0 0 1 121.77 212.81
  Q 119.16 212.46 118.46 214.81
  A 0.57 0.56 13.2 0 0 118.91 215.52
  Z"
/>
<path fill="#1f9fb3" d="
  M 139.94 207.99
  L 137.94 207.54
  A 0.97 0.97 0.0 0 1 138.12 205.62
  L 146.04 205.39
  Q 146.52 205.38 146.51 205.86
  L 146.44 207.58
  A 0.69 0.69 0.0 0 1 145.75 208.25
  L 143.97 208.25
  Q 143.44 208.25 143.45 208.78
  L 143.62 217.08
  Q 143.63 217.58 143.23 217.87
  Q 142.28 218.55 141.30 218.12
  Q 140.74 217.88 140.72 217.26
  L 140.51 208.69
  A 0.74 0.73 6.1 0 0 139.94 207.99
  Z"
/>
<path fill="#1f9fb3" d="
  M 341.64 211.76
  A 6.42 6.42 0.0 0 1 335.22 218.18
  A 6.42 6.42 0.0 0 1 328.80 211.76
  A 6.42 6.42 0.0 0 1 335.22 205.34
  A 6.42 6.42 0.0 0 1 341.64 211.76
  Z
  M 338.95 211.88
  A 3.68 3.68 0.0 0 0 335.27 208.20
  A 3.68 3.68 0.0 0 0 331.59 211.88
  A 3.68 3.68 0.0 0 0 335.27 215.56
  A 3.68 3.68 0.0 0 0 338.95 211.88
  Z"
/>
<path fill="#1f9fb3" d="
  M 441.87 208.05
  L 441.09 208.76
  A 0.54 0.54 0.0 0 0 441.24 209.65
  C 442.91 210.38 445.78 211.35 446.85 212.76
  C 449.90 216.77 441.69 221.04 438.48 215.71
  A 0.93 0.92 43.5 0 1 438.45 214.82
  Q 438.97 213.78 440.12 214.46
  Q 440.55 214.72 440.89 215.09
  Q 442.04 216.40 443.96 215.81
  A 1.19 1.19 0.0 0 0 444.18 213.63
  C 441.66 212.26 438.01 212.14 438.50 208.24
  C 438.94 204.72 445.30 204.32 446.68 207.88
  A 0.73 0.73 0.0 0 1 445.77 208.84
  L 442.72 207.86
  A 0.87 0.87 0.0 0 0 441.87 208.05
  Z"
/>
<path fill="#1f9fb3" d="
  M 456.37 215.71
  A 2.79 2.14 -42.6 0 0 451.54 216.14
  C 451.33 216.65 451.16 217.52 450.42 217.88
  Q 449.45 218.36 448.73 217.63
  Q 448.33 217.21 448.51 216.67
  L 451.94 206.65
  A 1.23 1.20 -9.8 0 1 452.37 206.06
  Q 454.70 204.38 455.88 207.16
  Q 457.81 211.74 459.17 216.52
  Q 459.45 217.51 458.56 218.00
  A 1.01 1.00 -37.9 0 1 457.39 217.86
  Q 456.44 216.99 456.37 215.71
  Z
  M 454.0162 213.0045
  A 1.95 0.84 85.7 0 0 454.7076 210.9970
  A 1.95 0.84 85.7 0 0 453.7238 209.1155
  A 1.95 0.84 85.7 0 0 453.0324 211.1230
  A 1.95 0.84 85.7 0 0 454.0162 213.0045
  Z"
/>
<path fill="#1f9fb3" d="
  M 468.48 205.84
  A 0.83 0.82 -48.4 0 1 470.11 205.74
  C 470.92 209.55 471.96 219.11 465.12 218.14
  C 459.80 217.38 460.48 209.82 461.10 206.17
  A 0.86 0.86 0.0 0 1 462.24 205.50
  Q 463.88 206.09 463.53 208.26
  Q 463.10 210.99 463.64 214.24
  A 2.07 2.05 -2.6 0 0 465.54 215.96
  C 469.32 216.20 468.23 208.54 468.48 205.84
  Z"
/>
<path fill="#1f9fb3" d="
  M 132.67 211.22
  L 132.93 206.63
  A 1.19 1.19 0.0 0 1 134.00 205.52
  Q 134.90 205.43 135.37 206.02
  Q 135.67 206.41 135.63 207.18
  Q 135.37 212.32 135.54 216.98
  A 1.41 1.40 30.6 0 1 132.88 217.66
  L 130.31 212.56
  A 0.53 0.53 0.0 0 0 129.30 212.78
  L 129.14 217.00
  A 1.29 1.29 0.0 0 1 126.56 216.98
  L 126.30 206.45
  Q 126.29 205.86 126.85 205.68
  C 129.51 204.84 130.87 209.80 131.91 211.42
  A 0.41 0.41 0.0 0 0 132.67 211.22
  Z"
/>
<path fill="#1f9fb3" d="
  M 151.18 215.25
  Q 151.56 216.19 151.39 217.06
  A 1.46 1.46 0.0 0 1 148.50 216.79
  L 148.50 206.99
  A 1.47 1.47 0.0 0 1 149.92 205.52
  C 152.65 205.43 156.22 204.83 157.92 207.81
  C 159.40 210.40 157.45 211.13 155.99 212.68
  Q 155.55 213.14 155.82 213.71
  L 157.21 216.62
  A 1.14 1.14 0.0 0 1 155.44 217.97
  C 154.10 216.80 154.16 215.32 153.24 214.61
  Q 152.51 214.05 151.55 214.42
  A 0.64 0.63 -21.2 0 0 151.18 215.25
  Z
  M 155.1454 209.2885
  A 1.11 1.11 0.0 0 0 154.1343 208.0878
  L 152.6995 207.9648
  A 1.11 1.11 0.0 0 0 151.4988 208.9759
  L 151.3946 210.1915
  A 1.11 1.11 0.0 0 0 152.4057 211.3922
  L 153.8405 211.5152
  A 1.11 1.11 0.0 0 0 155.0412 210.5041
  L 155.1454 209.2885
  Z"
/>
<path fill="#1f9fb3" d="
  M 172.32 211.82
  A 6.34 6.34 0.0 0 1 165.98 218.16
  A 6.34 6.34 0.0 0 1 159.64 211.82
  A 6.34 6.34 0.0 0 1 165.98 205.48
  A 6.34 6.34 0.0 0 1 172.32 211.82
  Z
  M 169.83 211.88
  A 3.82 3.82 0.0 0 0 166.01 208.06
  A 3.82 3.82 0.0 0 0 162.19 211.88
  A 3.82 3.82 0.0 0 0 166.01 215.70
  A 3.82 3.82 0.0 0 0 169.83 211.88
  Z"
/>
<path fill="#1f9fb3" d="
  M 179.06 207.62
  A 2.13 2.13 0.0 0 1 181.19 205.49
  L 183.93 205.49
  A 5.64 5.55 -90.0 0 1 189.48 211.13
  L 189.48 212.39
  A 5.64 5.55 -90.0 0 1 183.93 218.03
  L 181.19 218.03
  A 2.13 2.13 0.0 0 1 179.06 215.90
  L 179.06 207.62
  Z
  M 181.21 209.09
  L 181.34 214.78
  A 1.28 1.28 0.0 0 0 182.64 216.03
  L 183.83 216.01
  A 3.25 3.02 -1.3 0 0 187.01 212.91
  L 186.96 210.70
  A 3.25 3.02 -1.3 0 0 183.65 207.75
  L 182.46 207.78
  A 1.28 1.28 0.0 0 0 181.21 209.09
  Z"
/>
<path fill="#1f9fb3" d="
  M 194.48 214.40
  A 1.15 1.14 -79.0 0 0 195.49 215.90
  L 199.83 216.19
  A 0.89 0.89 0.0 0 1 199.76 217.97
  L 192.56 217.90
  A 0.65 0.65 0.0 0 1 191.91 217.25
  L 191.91 206.33
  A 0.61 0.60 -5.2 0 1 192.41 205.74
  Q 195.74 205.13 199.06 205.88
  Q 199.78 206.04 199.52 206.74
  L 199.18 207.62
  Q 199.00 208.10 198.50 207.94
  Q 196.77 207.36 195.27 208.13
  A 1.39 1.38 -58.6 0 0 195.90 210.75
  L 198.16 210.75
  Q 198.84 210.75 198.77 211.42
  L 198.66 212.46
  Q 198.59 213.20 197.85 213.08
  L 195.71 212.73
  A 0.76 0.76 0.0 0 0 194.87 213.24
  L 194.48 214.40
  Z"
/>
<path fill="#1f9fb3" d="
  M 208.74 214.86
  L 209.04 217.45
  Q 209.11 218.00 208.55 218.00
  L 207.37 218.00
  Q 206.75 218.00 206.75 217.37
  L 206.75 207.31
  A 1.75 1.75 0.0 0 1 208.30 205.57
  Q 210.73 205.28 212.68 205.76
  C 216.54 206.70 216.78 211.17 213.68 213.27
  C 212.45 214.10 210.87 213.95 209.39 214.07
  A 0.71 0.70 84.6 0 0 208.74 214.86
  Z
  M 208.98 208.38
  L 208.98 211.10
  A 0.88 0.88 0.0 0 0 209.85 211.99
  L 210.23 211.99
  A 3.02 1.67 0.2 0 0 213.26 210.33
  L 213.26 209.19
  A 3.02 1.67 0.2 0 0 210.25 207.51
  L 209.87 207.51
  A 0.88 0.88 0.0 0 0 208.98 208.38
  Z"
/>
<path fill="#1f9fb3" d="
  M 221.31 211.01
  Q 222.79 210.44 224.31 210.97
  A 0.93 0.93 0.0 0 1 224.10 212.77
  L 220.81 213.10
  Q 220.33 213.15 220.31 213.63
  L 220.25 215.29
  A 0.68 0.67 1.6 0 0 220.92 215.99
  L 225.25 216.01
  Q 225.75 216.01 225.75 216.50
  L 225.75 217.38
  Q 225.75 218.02 225.12 218.01
  L 218.66 217.97
  Q 217.92 217.96 217.94 217.22
  L 218.16 206.27
  A 0.75 0.74 0.4 0 1 218.91 205.54
  L 224.63 205.48
  A 0.73 0.72 -4.1 0 1 225.35 206.10
  L 225.54 207.36
  A 0.59 0.59 0.0 0 1 224.86 208.03
  L 221.33 207.46
  A 0.69 0.69 0.0 0 0 220.54 208.14
  L 220.54 210.48
  Q 220.54 211.30 221.31 211.01
  Z"
/>
<path fill="#1f9fb3" d="
  M 233.28 213.49
  C 230.98 212.38 227.08 211.85 227.75 208.35
  C 228.42 204.89 232.56 205.18 235.20 206.47
  A 1.27 1.27 0.0 0 1 234.42 208.86
  C 233.46 208.68 232.66 207.38 231.46 207.43
  Q 230.49 207.48 230.07 208.42
  A 1.24 1.23 -66.5 0 0 230.71 210.05
  C 233.14 211.11 238.01 212.33 235.72 216.33
  C 234.00 219.35 227.56 218.33 227.67 215.22
  Q 227.69 214.54 228.26 214.12
  A 0.66 0.66 0.0 0 1 229.20 214.27
  Q 230.29 215.82 232.21 216.35
  A 1.53 1.53 0.0 0 0 233.28 213.49
  Z"
/>
<path fill="#1f9fb3" d="
  M 248.71 217.27
  L 249.06 219.18
  A 0.64 0.64 0.0 0 1 248.03 219.79
  L 246.44 218.50
  A 1.17 1.17 0.0 0 0 245.69 218.25
  C 240.21 218.48 236.08 213.86 238.73 208.75
  C 242.64 201.21 254.90 207.20 248.86 216.51
  Q 248.64 216.86 248.71 217.27
  Z
  M 244.80 213.95
  C 247.30 214.98 248.52 213.22 248.04 210.95
  C 246.55 203.85 236.15 210.53 242.25 215.04
  Q 242.77 215.42 243.20 214.95
  L 243.95 214.13
  Q 244.31 213.74 244.80 213.95
  Z"
/>
<path fill="#1f9fb3" d="
  M 255.44 217.56
  C 252.13 216.05 252.92 209.67 253.00 206.81
  A 1.35 1.35 0.0 0 1 253.92 205.57
  Q 255.04 205.20 255.10 206.57
  C 255.20 209.11 254.27 215.81 257.90 216.03
  A 2.00 1.99 1.9 0 0 260.02 214.05
  L 260.05 206.34
  Q 260.05 205.68 260.72 205.65
  L 262.00 205.59
  Q 262.71 205.55 262.73 206.26
  C 262.85 210.40 263.51 221.25 255.44 217.56
  Z"
/>
<path fill="#1f9fb3" d="
  M 276.12 215.65
  C 277.78 213.23 273.19 212.15 271.58 211.68
  A 1.17 1.16 -5.2 0 1 270.85 211.08
  C 268.28 205.94 274.71 204.44 278.13 206.44
  A 0.85 0.83 -67.7 0 1 278.52 207.39
  L 278.13 208.83
  A 0.53 0.52 -61.9 0 1 277.28 209.09
  Q 275.42 207.47 273.19 208.39
  A 0.81 0.80 -49.3 0 0 273.30 209.92
  Q 276.55 210.70 278.94 213.04
  A 0.98 0.98 0.0 0 1 279.22 213.93
  C 278.40 218.38 273.55 219.69 270.81 216.51
  Q 269.82 215.36 270.97 214.32
  Q 271.33 213.99 271.72 214.30
  L 273.85 215.99
  A 1.56 1.56 0.0 0 0 276.12 215.65
  Z"
/>
<path fill="#1f9fb3" d="
  M 283.91 206.51
  A 1.92 1.92 0.0 0 1 287.52 206.45
  L 291.41 216.83
  Q 291.60 217.33 291.11 217.56
  C 287.49 219.28 286.27 212.51 286.43 210.41
  A 0.85 0.83 16.3 0 0 285.97 209.59
  Q 285.45 209.33 285.10 209.56
  Q 284.84 209.73 284.76 210.21
  Q 284.49 211.87 285.46 213.23
  A 0.75 0.75 0.0 0 1 285.40 214.17
  L 282.11 217.78
  A 1.04 1.04 0.0 0 1 280.36 217.41
  Q 279.93 216.11 280.81 215.09
  Q 281.17 214.68 281.34 214.16
  L 283.91 206.51
  Z"
/>
<path fill="#1f9fb3" d="
  M 300.64 207.86
  A 1.62 1.43 -54.9 0 0 300.98 210.90
  Q 301.98 210.67 302.99 210.71
  A 1.06 1.06 0.0 0 1 303.28 212.77
  Q 301.80 213.25 300.43 212.55
  A 0.63 0.62 14.0 0 0 299.52 213.09
  L 299.49 215.08
  A 0.61 0.61 0.0 0 0 300.08 215.69
  L 304.45 215.87
  A 0.43 0.38 64.1 0 1 304.67 215.96
  Q 306.13 217.23 304.03 217.82
  A 5.50 4.74 30.8 0 1 303.06 217.99
  C 301.67 218.08 300.57 218.01 298.84 218.11
  Q 297.36 218.19 297.06 216.70
  Q 296.56 214.18 297.27 206.43
  Q 297.32 205.89 297.85 205.78
  Q 301.03 205.10 304.21 205.82
  A 1.03 1.02 56.1 0 1 303.82 207.83
  Q 301.99 207.53 300.64 207.86
  Z"
/>
<rect fill="#1f9fb3" x="-1.14" y="-6.14" transform="translate(313.09,211.83) rotate(0.5)" width="2.28" height="12.28" rx="0.47"/>
<path fill="#1f9fb3" d="
  M 320.40 211.77
  A 0.38 0.38 0.0 0 0 319.75 212.03
  L 319.75 216.67
  A 1.27 1.26 -45.2 0 1 317.22 216.68
  Q 317.20 211.53 317.33 206.49
  A 0.73 0.73 0.0 0 1 317.87 205.80
  C 321.15 204.95 321.33 209.76 323.77 211.57
  A 0.50 0.50 0.0 0 0 324.55 211.05
  C 324.21 209.68 323.24 206.26 325.04 205.62
  A 1.47 1.47 0.0 0 1 327.00 207.00
  L 327.00 217.16
  Q 327.00 217.83 326.33 217.79
  L 324.13 217.64
  A 0.87 0.85 84.3 0 1 323.36 217.00
  Q 322.55 214.02 320.40 211.77
  Z"
/>
<path fill="#1f9fb3" d="
  M 347.03 212.48
  A 0.37 0.36 39.3 0 0 347.74 212.41
  C 347.92 210.83 348.53 206.83 349.75 205.87
  A 1.27 1.27 0.0 0 1 351.74 207.24
  L 348.80 216.84
  A 1.70 1.70 0.0 0 1 345.55 216.82
  L 342.58 206.72
  A 0.91 0.91 0.0 0 1 343.43 205.55
  C 345.89 205.47 346.48 210.74 347.03 212.48
  Z"
/>
<path fill="#1f9fb3" d="
  M 356.05 205.95
  A 0.23 0.21 -4.4 0 1 356.16 205.83
  C 358.36 204.78 359.38 205.83 360.00 207.83
  Q 361.41 212.39 363.29 216.81
  A 0.83 0.82 -3.4 0 1 362.30 217.92
  Q 360.36 217.36 359.50 215.42
  A 1.75 1.75 0.0 0 0 356.59 214.97
  L 354.15 217.73
  A 1.20 1.20 0.0 0 1 352.13 216.51
  L 356.05 205.95
  Z
  M 358.1902 213.3882
  A 2.19 1.13 70.8 0 0 358.5371 210.9484
  A 2.19 1.13 70.8 0 0 356.7498 209.2518
  A 2.19 1.13 70.8 0 0 356.4029 211.6916
  A 2.19 1.13 70.8 0 0 358.1902 213.3882
  Z"
/>
<path fill="#1f9fb3" d="
  M 371.50 219.26
  L 371.50 220.77
  A 0.98 0.98 0.0 0 1 371.06 221.59
  Q 369.96 222.32 368.67 221.81
  A 0.95 0.94 -55.1 0 1 368.39 220.22
  L 369.60 219.14
  A 0.48 0.47 -57.0 0 0 369.43 218.33
  C 359.51 215.25 365.26 201.04 374.13 206.51
  C 375.08 207.09 375.37 208.13 374.68 209.00
  A 0.57 0.56 36.4 0 1 373.90 209.11
  C 367.40 204.58 363.73 214.13 369.95 215.71
  Q 370.37 215.82 370.78 215.68
  L 374.69 214.38
  A 0.89 0.89 0.0 0 1 375.49 215.95
  L 371.93 218.44
  Q 371.50 218.74 371.50 219.26
  Z"
/>
<path fill="#1f9fb3" d="
  M 380.07 206.15
  A 1.66 1.65 47.8 0 1 383.08 206.30
  L 387.18 216.55
  A 0.98 0.96 -37.8 0 1 387.05 217.49
  Q 386.28 218.50 385.23 217.80
  C 383.40 216.60 383.95 215.10 381.08 214.53
  A 0.81 0.81 0.0 0 0 380.22 214.90
  C 379.40 216.24 378.01 218.87 376.06 217.22
  Q 375.61 216.84 376.09 216.49
  Q 376.81 215.96 376.91 215.43
  Q 377.74 210.67 380.07 206.15
  Z
  M 382.44 212.69
  L 382.82 209.76
  A 0.24 0.24 0.0 0 0 382.62 209.49
  L 382.49 209.47
  A 1.71 1.56 7.5 0 0 380.59 210.80
  L 380.55 211.11
  A 1.71 1.56 7.5 0 0 382.04 212.88
  L 382.17 212.90
  A 0.24 0.24 0.0 0 0 382.44 212.69
  Z"
/>
<path fill="#1f9fb3" d="
  M 400.69 211.79
  A 6.36 6.36 0.0 0 1 394.33 218.15
  A 6.36 6.36 0.0 0 1 387.97 211.79
  A 6.36 6.36 0.0 0 1 394.33 205.43
  A 6.36 6.36 0.0 0 1 400.69 211.79
  Z
  M 398.11 211.86
  A 3.81 3.81 0.0 0 0 394.30 208.05
  A 3.81 3.81 0.0 0 0 390.49 211.86
  A 3.81 3.81 0.0 0 0 394.30 215.67
  A 3.81 3.81 0.0 0 0 398.11 211.86
  Z"
/>
<path fill="#1f9fb3" d="
  M 407.34 206.96
  Q 407.42 205.81 408.57 205.66
  Q 411.33 205.32 413.84 205.61
  Q 415.33 205.78 414.73 207.22
  Q 414.60 207.56 414.24 207.60
  L 410.79 208.03
  A 1.37 1.37 0.0 0 0 410.96 210.75
  L 412.91 210.75
  Q 413.34 210.75 413.69 211.00
  Q 414.71 211.73 413.75 212.45
  Q 413.35 212.75 412.85 212.75
  L 410.36 212.75
  A 0.63 0.62 85.3 0 0 409.75 213.48
  L 410.03 215.06
  Q 410.14 215.72 410.81 215.78
  L 415.02 216.15
  A 0.86 0.86 0.0 0 1 414.99 217.87
  C 413.10 217.98 406.93 218.99 407.13 216.04
  C 407.35 213.01 407.14 210.00 407.34 206.96
  Z"
/>
<path fill="#1f9fb3" d="
  M 421.58 211.69
  A 0.57 0.57 0.0 0 0 420.45 211.78
  Q 420.40 215.01 419.89 217.35
  A 1.24 1.24 0.0 0 1 417.45 216.98
  L 418.33 206.95
  A 1.50 1.49 -56.0 0 1 421.15 206.40
  L 424.59 213.13
  Q 424.91 213.74 425.14 213.09
  Q 426.39 209.48 428.27 206.19
  Q 429.14 204.66 430.68 206.25
  A 0.74 0.73 19.5 0 1 430.89 206.68
  L 432.00 217.23
  Q 432.08 218.04 431.27 218.01
  L 430.16 217.97
  Q 429.55 217.95 429.48 217.35
  L 428.90 211.71
  Q 428.83 211.04 428.47 211.61
  L 425.58 216.27
  A 0.99 0.99 0.0 0 1 424.05 216.46
  Q 422.06 214.52 421.58 211.69
  Z"
/>
<path fill="#1f9fb3" d="
  M 473.50 207.32
  A 1.88 1.88 0.0 0 1 475.38 205.44
  L 478.21 205.44
  A 6.21 6.01 -90.0 0 1 484.22 211.65
  L 484.22 211.97
  A 6.21 6.01 -90.0 0 1 478.21 218.18
  L 475.38 218.18
  A 1.88 1.88 0.0 0 1 473.50 216.30
  L 473.50 207.32
  Z
  M 476.16 208.78
  L 476.14 214.84
  A 1.21 1.21 0.0 0 0 477.35 216.05
  L 477.72 216.05
  A 3.88 3.78 -89.9 0 0 481.51 212.17
  L 481.51 211.45
  A 3.88 3.78 -89.9 0 0 477.74 207.57
  L 477.37 207.57
  A 1.21 1.21 0.0 0 0 476.16 208.78
  Z"
/>
<path fill="#1f9fb3" d="
  M 489.48 213.31
  A 1.15 1.15 0.0 0 0 489.59 215.59
  Q 491.43 215.76 493.55 216.01
  Q 494.00 216.07 494.22 216.30
  Q 494.55 216.67 494.52 217.24
  A 0.85 0.85 0.0 0 1 493.66 218.04
  L 487.09 217.91
  Q 486.28 217.90 486.28 217.09
  L 486.18 206.46
  A 0.77 0.77 0.0 0 1 486.83 205.70
  Q 490.07 205.19 493.37 205.76
  A 1.23 1.23 0.0 0 1 493.03 208.20
  Q 491.40 208.03 489.73 208.43
  A 1.05 1.04 -51.7 0 0 489.97 210.49
  L 492.94 210.52
  A 1.30 0.97 -42.0 0 1 492.50 212.76
  L 489.48 213.31
  Z"
/>
<path fill="#1f9fb3" d="
  M 504.32 211.80
  A 0.31 0.31 0.0 0 0 503.75 211.95
  L 503.31 217.41
  Q 503.26 218.07 502.59 218.02
  L 501.37 217.93
  A 0.67 0.66 -85.3 0 1 500.76 217.20
  L 501.77 207.02
  A 1.65 1.65 0.0 0 1 504.92 206.52
  L 507.78 212.97
  Q 508.08 213.65 508.40 212.97
  L 511.51 206.28
  A 1.46 1.46 0.0 0 1 514.29 206.73
  L 515.45 216.79
  A 1.04 1.02 77.8 0 1 514.76 217.88
  Q 513.48 218.31 512.98 217.49
  C 512.41 216.54 512.78 213.35 512.37 211.87
  A 0.30 0.30 0.0 0 0 511.83 211.80
  L 508.78 216.84
  A 0.65 0.65 0.0 0 1 507.69 216.86
  L 504.32 211.80
  Z"
/>
<path fill="#1f9fb3" d="
  M 521.73 210.79
  L 523.60 210.42
  A 0.75 0.75 0.0 0 1 524.50 211.19
  L 524.44 212.56
  A 0.71 0.70 10.1 0 1 523.52 213.20
  L 521.71 212.63
  Q 521.03 212.42 520.96 213.12
  L 520.74 215.10
  A 0.75 0.75 0.0 0 0 521.45 215.93
  L 525.53 216.13
  A 0.89 0.88 45.7 0 1 525.51 217.90
  L 519.64 218.04
  A 1.64 1.64 0.0 0 1 517.98 216.18
  Q 518.57 211.73 517.95 207.30
  A 1.63 1.62 87.4 0 1 519.64 205.44
  L 524.59 205.68
  Q 525.21 205.71 525.33 206.32
  L 525.52 207.32
  A 0.58 0.58 0.0 0 1 524.89 208.01
  L 521.64 207.67
  Q 520.62 207.56 520.77 208.58
  L 521.04 210.31
  Q 521.13 210.91 521.73 210.79
  Z"
/>
<path fill="#1f9fb3" d="
  M 535.49 211.45
  Q 535.30 209.34 535.23 207.21
  Q 535.20 206.19 535.61 205.90
  Q 536.14 205.52 537.24 205.79
  A 0.68 0.68 0.0 0 1 537.75 206.45
  L 537.75 216.81
  A 1.51 1.51 0.0 0 1 534.90 217.51
  L 532.05 212.05
  A 0.51 0.51 0.0 0 0 531.09 212.24
  L 530.69 217.27
  A 1.11 1.11 0.0 0 1 528.47 217.18
  L 528.56 206.08
  Q 528.56 205.60 529.04 205.59
  C 532.53 205.51 532.12 210.02 534.91 211.80
  Q 535.56 212.22 535.49 211.45
  Z"
/>
<path fill="#1f9fb3" d="
  M 543.17 208.78
  Q 543.18 208.35 542.75 208.27
  C 541.39 208.04 539.89 207.73 540.27 206.06
  Q 540.40 205.50 540.97 205.50
  L 547.79 205.50
  A 1.08 1.08 0.0 0 1 548.03 207.63
  L 546.01 208.10
  A 0.71 0.70 -7.1 0 0 545.46 208.80
  L 545.60 217.24
  A 0.60 0.59 89.5 0 1 545.01 217.85
  L 543.69 217.85
  A 0.65 0.65 0.0 0 1 543.04 217.19
  L 543.17 208.78
  Z"
/>
<path fill="#1f9fb3" d="
  M 554.48 208.42
  Q 553.04 210.48 553.73 212.91
  Q 553.86 213.39 553.58 213.81
  L 550.97 217.58
  A 1.12 1.12 0.0 0 1 548.99 216.56
  L 552.56 206.66
  A 1.82 1.82 0.0 0 1 555.98 206.67
  L 559.63 216.95
  A 0.77 0.77 0.0 0 1 558.68 217.94
  C 555.79 217.04 555.48 211.03 555.30 208.64
  A 0.45 0.45 0.0 0 0 554.48 208.42
  Z"
/>
<rect fill="#1f9fb3" x="-1.16" y="-6.01" transform="translate(266.62,211.84) rotate(0.1)" width="2.32" height="12.02" rx="0.58"/>
<path fill="#1f9fb3" d="
  M 561.95 206.54
  A 0.78 0.77 86.2 0 1 562.62 205.77
  Q 564.27 205.54 564.24 207.24
  Q 564.16 211.30 564.30 215.35
  Q 564.32 215.89 564.86 215.92
  L 568.75 216.18
  A 0.73 0.73 0.0 0 1 568.76 217.63
  L 562.54 218.11
  A 0.60 0.59 88.3 0 1 561.90 217.50
  L 561.95 206.54
  Z"
/>
<path fill="#ffffff" d="
  M 208.98 208.38
  A 0.88 0.88 0.0 0 1 209.87 207.51
  L 210.25 207.51
  A 3.02 1.67 0.2 0 1 213.26 209.19
  L 213.26 210.33
  A 3.02 1.67 0.2 0 1 210.23 211.99
  L 209.85 211.99
  A 0.88 0.88 0.0 0 1 208.98 211.10
  L 208.98 208.38
  Z"
/>
<path fill="#ffffff" d="
  M 476.16 208.78
  A 1.21 1.21 0.0 0 1 477.37 207.57
  L 477.74 207.57
  A 3.88 3.78 -89.9 0 1 481.51 211.45
  L 481.51 212.17
  A 3.88 3.78 -89.9 0 1 477.72 216.05
  L 477.35 216.05
  A 1.21 1.21 0.0 0 1 476.14 214.84
  L 476.16 208.78
  Z"
/>
<path fill="#ffffff" d="
  M 181.21 209.09
  A 1.28 1.28 0.0 0 1 182.46 207.78
  L 183.65 207.75
  A 3.25 3.02 -1.3 0 1 186.96 210.70
  L 187.01 212.91
  A 3.25 3.02 -1.3 0 1 183.83 216.01
  L 182.64 216.03
  A 1.28 1.28 0.0 0 1 181.34 214.78
  L 181.21 209.09
  Z"
/>
<rect fill="#ffffff" x="-1.83" y="-1.72" transform="translate(153.27,209.74) rotate(4.9)" width="3.66" height="3.44" rx="1.11"/>
<circle fill="#ffffff" cx="166.01" cy="211.88" r="3.82"/>
<path fill="#ffffff" d="
  M 243.95 214.13
  L 243.20 214.95
  Q 242.77 215.42 242.25 215.04
  C 236.15 210.53 246.55 203.85 248.04 210.95
  C 248.52 213.22 247.30 214.98 244.80 213.95
  Q 244.31 213.74 243.95 214.13
  Z"
/>
<circle fill="#ffffff" cx="394.30" cy="211.86" r="3.81"/>
<circle fill="#ffffff" cx="335.27" cy="211.88" r="3.68"/>
<ellipse fill="#ffffff" cx="0.00" cy="0.00" transform="translate(453.87,211.06) rotate(85.7)" rx="1.95" ry="0.84"/>
<ellipse fill="#ffffff" cx="0.00" cy="0.00" transform="translate(357.47,211.32) rotate(70.8)" rx="2.19" ry="1.13"/>
<path fill="#ffffff" d="
  M 382.44 212.69
  A 0.24 0.24 0.0 0 1 382.17 212.90
  L 382.04 212.88
  A 1.71 1.56 7.5 0 1 380.55 211.11
  L 380.59 210.80
  A 1.71 1.56 7.5 0 1 382.49 209.47
  L 382.62 209.49
  A 0.24 0.24 0.0 0 1 382.82 209.76
  L 382.44 212.69
  Z"
/>
</svg>
