<?xml version="1.0" encoding="UTF-8" standalone="no"?>
<!DOCTYPE svg PUBLIC "-//W3C//DTD SVG 1.1//EN" "http://www.w3.org/Graphics/SVG/1.1/DTD/svg11.dtd">
<svg xmlns="http://www.w3.org/2000/svg" version="1.1" viewBox="0.00 0.00 225.00 225.00">
<g stroke-width="2.00" fill="none" stroke-linecap="butt">
<path stroke="#f4999b" vector-effect="non-scaling-stroke" d="
  M 120.06 48.23
  Q 112.69 47.07 107.97 50.57
  C 101.69 55.22 101.15 63.47 106.32 69.47
  C 109.07 72.66 114.92 74.17 113.38 79.83
  A 1.18 1.18 0.0 0 0 115.33 81.00
  Q 122.55 74.14 116.60 66.56
  C 114.79 64.25 113.21 62.87 113.15 59.85
  Q 112.99 51.97 120.14 48.85
  Q 121.16 48.41 120.06 48.23"
/>
<path stroke="#f4999b" vector-effect="non-scaling-stroke" d="
  M 117.03 81.61
  C 127.00 80.95 133.02 69.04 124.37 62.34
  A 1.16 0.05 63.4 0 1 123.86 61.43
  Q 122.46 58.73 124.61 56.77
  Q 125.64 55.83 124.28 56.11
  C 118.21 57.36 116.51 62.43 119.71 67.43
  Q 124.64 75.12 116.90 81.27
  A 0.19 0.19 0.0 0 0 117.03 81.61"
/>
<path stroke="#f4999b" vector-effect="non-scaling-stroke" d="
  M 111.96 79.99
  C 113.29 71.00 95.89 74.00 101.05 61.19
  A 0.26 0.26 0.0 0 0 100.66 60.88
  C 94.80 65.12 95.20 74.09 102.18 76.94
  C 105.32 78.23 108.29 76.91 111.40 80.17
  Q 111.87 80.66 111.96 79.99"
/>
<path stroke="#80b9d5" vector-effect="non-scaling-stroke" d="
  M 135.00 82.50
  L 93.51 82.50
  A 0.12 0.12 0.0 0 0 93.47 82.73
  Q 114.26 90.09 135.05 82.76
  A 0.14 0.13 34.9 0 0 135.00 82.50"
/>
<path stroke="#80b9d5" vector-effect="non-scaling-stroke" d="
  M 111.50 89.42
  A 1.28 1.28 0.0 0 0 110.22 88.14
  A 1.28 1.28 0.0 0 0 108.94 89.42
  A 1.28 1.28 0.0 0 0 110.22 90.70
  A 1.28 1.28 0.0 0 0 111.50 89.42"
/>
<path stroke="#80b9d5" vector-effect="non-scaling-stroke" d="
  M 119.73 89.42
  A 1.32 1.32 0.0 0 0 118.41 88.10
  A 1.32 1.32 0.0 0 0 117.09 89.42
  A 1.32 1.32 0.0 0 0 118.41 90.74
  A 1.32 1.32 0.0 0 0 119.73 89.42"
/>
<path stroke="#80b9d5" vector-effect="non-scaling-stroke" d="
  M 115.60 89.40
  A 1.29 1.29 0.0 0 0 114.31 88.11
  A 1.29 1.29 0.0 0 0 113.02 89.40
  A 1.29 1.29 0.0 0 0 114.31 90.69
  A 1.29 1.29 0.0 0 0 115.60 89.40"
/>
<path stroke="#80b9d5" vector-effect="non-scaling-stroke" d="
  M 150.09 111.04
  C 143.21 118.99 134.88 100.57 147.96 100.40
  Q 148.45 100.40 148.79 100.74
  L 150.16 102.10
  A 0.81 0.81 0.0 0 0 151.01 102.28
  L 159.26 99.25
  Q 159.88 99.03 159.51 98.48
  C 151.28 86.27 129.09 92.04 131.09 108.18
  C 133.34 126.36 163.17 124.09 161.18 104.36
  Q 161.12 103.75 160.51 103.75
  L 146.48 103.75
  Q 145.77 103.75 145.77 104.46
  L 145.77 109.42
  Q 145.77 110.25 146.61 110.25
  L 149.73 110.25
  A 0.48 0.48 0.0 0 1 150.09 111.04"
/>
<path stroke="#80b9d5" vector-effect="non-scaling-stroke" d="
  M 175.13 101.78
  A 1.07 1.06 45.9 0 1 175.16 99.72
  Q 178.66 98.87 181.61 100.85
  A 0.84 0.84 0.0 0 0 182.86 100.45
  L 184.95 94.95
  Q 185.10 94.57 184.75 94.36
  Q 178.68 90.67 172.01 92.72
  C 166.94 94.28 163.12 99.43 164.97 104.66
  C 166.40 108.73 171.16 109.46 175.00 110.17
  A 1.24 1.24 0.0 0 1 175.93 111.84
  C 174.68 115.00 168.54 111.91 167.08 110.63
  A 0.47 0.47 0.0 0 0 166.33 110.82
  L 163.79 117.54
  A 0.41 0.40 -66.8 0 0 163.98 118.04
  C 169.42 120.92 178.24 122.02 183.11 117.51
  C 186.19 114.67 187.27 109.07 184.40 105.72
  C 182.38 103.36 178.21 102.64 175.13 101.78"
/>
<path stroke="#80b9d5" vector-effect="non-scaling-stroke" d="
  M 67.41 110.49
  C 65.44 113.25 62.14 111.70 62.06 108.48
  Q 61.87 100.84 61.80 93.07
  Q 61.79 92.50 61.22 92.50
  L 52.53 92.50
  Q 52.08 92.50 52.07 92.95
  C 51.89 98.18 50.95 111.40 53.72 115.68
  C 57.99 122.29 72.39 122.40 76.20 115.10
  C 78.68 110.36 77.57 98.66 77.55 93.07
  Q 77.54 92.50 76.97 92.50
  L 68.26 92.50
  Q 67.78 92.50 67.78 92.99
  L 67.70 109.61
  Q 67.70 110.10 67.41 110.49"
/>
<path stroke="#80b9d5" vector-effect="non-scaling-stroke" d="
  M 92.85 103.25
  A 0.35 0.35 0.0 0 1 92.50 102.90
  L 92.50 100.60
  A 0.35 0.35 0.0 0 1 92.85 100.25
  L 100.40 100.25
  A 0.35 0.35 0.0 0 0 100.75 99.90
  L 100.75 92.85
  A 0.35 0.35 0.0 0 0 100.40 92.50
  L 82.85 92.50
  A 0.35 0.35 0.0 0 0 82.50 92.85
  L 82.50 119.65
  A 0.35 0.35 0.0 0 0 82.85 120.00
  L 92.15 120.00
  A 0.35 0.35 0.0 0 0 92.50 119.65
  L 92.50 110.85
  A 0.35 0.35 0.0 0 1 92.85 110.50
  L 99.45 110.50
  A 0.35 0.35 0.0 0 0 99.80 110.15
  L 99.88 103.60
  A 0.35 0.35 0.0 0 0 99.53 103.25
  L 92.85 103.25"
/>
<path stroke="#80b9d5" vector-effect="non-scaling-stroke" d="
  M 114.95 112.08
  L 118.19 118.84
  A 2.04 2.03 -12.6 0 0 120.03 120.00
  L 129.51 120.00
  Q 130.29 120.00 129.86 119.35
  L 123.31 109.66
  Q 122.88 109.02 123.62 108.82
  Q 125.59 108.30 126.91 106.69
  A 1.21 1.13 75.1 0 0 127.13 106.28
  C 132.27 90.06 113.84 92.50 105.00 92.50
  Q 104.50 92.50 104.50 93.00
  L 104.50 119.50
  Q 104.50 120.00 105.00 120.00
  L 113.75 120.00
  A 0.50 0.50 0.0 0 0 114.25 119.50
  L 114.25 112.23
  A 0.37 0.36 32.6 0 1 114.95 112.08"
/>
<path stroke="#80b9d5" vector-effect="non-scaling-stroke" d="
  M 185.99 124.76
  A 0.26 0.26 0.0 0 0 185.73 124.50
  L 52.53 124.50
  A 0.26 0.26 0.0 0 0 52.27 124.76
  L 52.27 128.04
  A 0.26 0.26 0.0 0 0 52.53 128.30
  L 185.73 128.30
  A 0.26 0.26 0.0 0 0 185.99 128.04
  L 185.99 124.76"
/>
<path stroke="#80b9d5" vector-effect="non-scaling-stroke" d="
  M 186.24 156.32
  L 183.82 154.72
  Q 183.32 154.39 183.68 153.90
  C 188.38 147.64 188.79 134.31 179.02 132.72
  C 163.74 130.23 162.32 156.41 177.88 155.95
  A 1.12 1.11 63.7 0 1 178.61 156.20
  L 182.53 159.44
  Q 183.09 159.90 183.64 159.43
  L 186.29 157.13
  A 0.51 0.51 0.0 0 0 186.24 156.32"
/>
<path stroke="#80b9d5" vector-effect="non-scaling-stroke" d="
  M 107.27 151.01
  C 97.20 153.68 98.41 133.95 107.13 137.91
  Q 107.54 138.09 107.66 138.53
  L 108.09 140.16
  Q 108.22 140.64 108.72 140.62
  L 113.29 140.45
  A 0.39 0.39 0.0 0 0 113.66 140.01
  C 112.79 134.52 109.08 132.33 103.75 132.69
  C 97.18 133.13 94.80 138.02 94.68 144.02
  C 94.46 155.01 103.80 159.35 112.80 153.80
  A 1.99 1.98 74.2 0 0 113.74 152.11
  L 113.75 143.75
  A 0.50 0.50 0.0 0 0 113.25 143.25
  L 105.11 143.25
  Q 104.46 143.25 104.45 143.89
  L 104.39 146.56
  Q 104.37 147.50 105.31 147.50
  L 107.40 147.50
  Q 108.05 147.50 108.02 148.15
  L 107.94 150.18
  Q 107.91 150.84 107.27 151.01"
/>
<path stroke="#80b9d5" vector-effect="non-scaling-stroke" d="
  M 148.54 147.85
  A 1.65 1.65 0.0 0 1 148.60 150.86
  Q 144.16 152.97 142.77 148.79
  A 0.77 0.76 81.6 0 0 142.08 148.27
  L 138.26 148.20
  A 1.43 1.43 0.0 0 0 137.00 150.36
  C 140.22 155.75 145.96 157.44 151.41 155.10
  C 156.68 152.82 155.94 145.61 150.52 143.25
  Q 147.20 141.80 143.91 140.23
  A 0.96 0.95 -75.3 0 1 143.37 139.29
  C 143.57 136.59 148.40 136.33 149.19 138.92
  Q 149.34 139.42 149.87 139.44
  L 154.29 139.63
  A 0.71 0.71 0.0 0 0 155.01 138.77
  C 152.66 127.54 132.13 133.20 138.97 142.61
  C 140.74 145.05 145.66 146.63 148.54 147.85"
/>
<path stroke="#80b9d5" vector-effect="non-scaling-stroke" d="
  M 62.99 148.18
  C 73.86 148.29 73.51 133.66 63.99 133.03
  Q 61.83 132.88 53.71 133.05
  Q 53.25 133.06 53.25 133.52
  L 53.25 155.00
  Q 53.25 155.75 54.00 155.75
  L 58.37 155.75
  Q 59.00 155.75 59.00 155.12
  L 59.00 148.97
  Q 59.00 148.34 59.63 148.29
  Q 61.33 148.16 62.99 148.18"
/>
<path stroke="#80b9d5" vector-effect="non-scaling-stroke" d="
  M 86.24 147.90
  C 94.73 145.64 93.62 134.31 85.17 133.08
  Q 82.50 132.69 74.66 133.11
  Q 74.06 133.14 74.06 133.75
  L 74.07 155.07
  Q 74.07 155.75 74.75 155.75
  L 79.25 155.75
  A 0.75 0.75 0.0 0 0 80.00 155.00
  L 80.00 148.97
  A 0.71 0.71 0.0 0 1 80.70 148.26
  C 82.65 148.23 84.54 148.35 86.24 147.90"
/>
<path stroke="#80b9d5" vector-effect="non-scaling-stroke" d="
  M 132.87 145.54
  C 136.53 141.37 134.33 133.62 127.92 133.08
  Q 124.19 132.76 117.38 133.09
  Q 116.75 133.12 116.75 133.75
  L 116.75 155.22
  A 0.53 0.53 0.0 0 0 117.28 155.75
  L 121.88 155.75
  Q 122.50 155.75 122.50 155.12
  L 122.50 148.76
  A 0.57 0.56 2.8 0 1 123.12 148.20
  C 126.62 148.52 130.42 148.32 132.87 145.54"
/>
<path stroke="#80b9d5" vector-effect="non-scaling-stroke" d="
  M 163.8680 133.3047
  A 0.28 0.28 0.0 0 0 163.5895 133.0232
  L 158.5896 132.9971
  A 0.28 0.28 0.0 0 0 158.3081 133.2756
  L 158.1920 155.4553
  A 0.28 0.28 0.0 0 0 158.4705 155.7368
  L 163.4704 155.7629
  A 0.28 0.28 0.0 0 0 163.7519 155.4844
  L 163.8680 133.3047"
/>
<path stroke="#80b9d5" vector-effect="non-scaling-stroke" d="
  M 114.24 100.67
  L 114.24 104.19
  A 0.69 0.69 0.0 0 0 114.93 104.88
  L 115.16 104.88
  A 3.12 2.24 0.1 0 0 118.28 102.64
  L 118.28 102.22
  A 3.12 2.24 0.1 0 0 115.16 99.98
  L 114.93 99.98
  A 0.69 0.69 0.0 0 0 114.24 100.67"
/>
<path stroke="#80b9d5" vector-effect="non-scaling-stroke" d="
  M 177.0695 151.3798
  A 7.09 4.24 89.6 0 0 181.2599 144.2604
  A 7.09 4.24 89.6 0 0 176.9705 137.2002
  A 7.09 4.24 89.6 0 0 172.7801 144.3196
  A 7.09 4.24 89.6 0 0 177.0695 151.3798"
/>
<path stroke="#80b9d5" vector-effect="non-scaling-stroke" d="
  M 59.00 138.38
  L 59.00 142.90
  A 0.62 0.62 0.0 0 0 59.63 143.51
  L 62.67 143.51
  A 2.60 2.55 -0.1 0 0 65.26 140.95
  L 65.26 140.29
  A 2.60 2.55 -0.1 0 0 62.65 137.75
  L 59.61 137.75
  A 0.62 0.62 0.0 0 0 59.00 138.38"
/>
<path stroke="#80b9d5" vector-effect="non-scaling-stroke" d="
  M 80.00 137.99
  L 80.00 143.27
  A 0.29 0.29 0.0 0 0 80.28 143.57
  L 83.19 143.57
  A 3.00 2.86 0.1 0 0 86.20 140.72
  L 86.20 140.58
  A 3.00 2.86 0.1 0 0 83.21 137.71
  L 80.30 137.71
  A 0.29 0.29 0.0 0 0 80.00 137.99"
/>
<path stroke="#80b9d5" vector-effect="non-scaling-stroke" d="
  M 122.50 138.38
  L 122.50 142.90
  A 0.62 0.62 0.0 0 0 123.12 143.52
  L 126.28 143.52
  A 2.56 2.48 -90.0 0 0 128.76 140.96
  L 128.76 140.32
  A 2.56 2.48 90.0 0 0 126.28 137.76
  L 123.12 137.76
  A 0.62 0.62 0.0 0 0 122.50 138.38"
/>
</g>
<path fill="#ffffff" d="
  M 0.00 0.00
  L 225.00 0.00
  L 225.00 225.00
  L 0.00 225.00
  L 0.00 0.00
  Z
  M 120.06 48.23
  Q 112.69 47.07 107.97 50.57
  C 101.69 55.22 101.15 63.47 106.32 69.47
  C 109.07 72.66 114.92 74.17 113.38 79.83
  A 1.18 1.18 0.0 0 0 115.33 81.00
  Q 122.55 74.14 116.60 66.56
  C 114.79 64.25 113.21 62.87 113.15 59.85
  Q 112.99 51.97 120.14 48.85
  Q 121.16 48.41 120.06 48.23
  Z
  M 117.03 81.61
  C 127.00 80.95 133.02 69.04 124.37 62.34
  A 1.16 0.05 63.4 0 1 123.86 61.43
  Q 122.46 58.73 124.61 56.77
  Q 125.64 55.83 124.28 56.11
  C 118.21 57.36 116.51 62.43 119.71 67.43
  Q 124.64 75.12 116.90 81.27
  A 0.19 0.19 0.0 0 0 117.03 81.61
  Z
  M 111.96 79.99
  C 113.29 71.00 95.89 74.00 101.05 61.19
  A 0.26 0.26 0.0 0 0 100.66 60.88
  C 94.80 65.12 95.20 74.09 102.18 76.94
  C 105.32 78.23 108.29 76.91 111.40 80.17
  Q 111.87 80.66 111.96 79.99
  Z
  M 135.00 82.50
  L 93.51 82.50
  A 0.12 0.12 0.0 0 0 93.47 82.73
  Q 114.26 90.09 135.05 82.76
  A 0.14 0.13 34.9 0 0 135.00 82.50
  Z
  M 111.50 89.42
  A 1.28 1.28 0.0 0 0 110.22 88.14
  A 1.28 1.28 0.0 0 0 108.94 89.42
  A 1.28 1.28 0.0 0 0 110.22 90.70
  A 1.28 1.28 0.0 0 0 111.50 89.42
  Z
  M 119.73 89.42
  A 1.32 1.32 0.0 0 0 118.41 88.10
  A 1.32 1.32 0.0 0 0 117.09 89.42
  A 1.32 1.32 0.0 0 0 118.41 90.74
  A 1.32 1.32 0.0 0 0 119.73 89.42
  Z
  M 115.60 89.40
  A 1.29 1.29 0.0 0 0 114.31 88.11
  A 1.29 1.29 0.0 0 0 113.02 89.40
  A 1.29 1.29 0.0 0 0 114.31 90.69
  A 1.29 1.29 0.0 0 0 115.60 89.40
  Z
  M 150.09 111.04
  C 143.21 118.99 134.88 100.57 147.96 100.40
  Q 148.45 100.40 148.79 100.74
  L 150.16 102.10
  A 0.81 0.81 0.0 0 0 151.01 102.28
  L 159.26 99.25
  Q 159.88 99.03 159.51 98.48
  C 151.28 86.27 129.09 92.04 131.09 108.18
  C 133.34 126.36 163.17 124.09 161.18 104.36
  Q 161.12 103.75 160.51 103.75
  L 146.48 103.75
  Q 145.77 103.75 145.77 104.46
  L 145.77 109.42
  Q 145.77 110.25 146.61 110.25
  L 149.73 110.25
  A 0.48 0.48 0.0 0 1 150.09 111.04
  Z
  M 175.13 101.78
  A 1.07 1.06 45.9 0 1 175.16 99.72
  Q 178.66 98.87 181.61 100.85
  A 0.84 0.84 0.0 0 0 182.86 100.45
  L 184.95 94.95
  Q 185.10 94.57 184.75 94.36
  Q 178.68 90.67 172.01 92.72
  C 166.94 94.28 163.12 99.43 164.97 104.66
  C 166.40 108.73 171.16 109.46 175.00 110.17
  A 1.24 1.24 0.0 0 1 175.93 111.84
  C 174.68 115.00 168.54 111.91 167.08 110.63
  A 0.47 0.47 0.0 0 0 166.33 110.82
  L 163.79 117.54
  A 0.41 0.40 -66.8 0 0 163.98 118.04
  C 169.42 120.92 178.24 122.02 183.11 117.51
  C 186.19 114.67 187.27 109.07 184.40 105.72
  C 182.38 103.36 178.21 102.64 175.13 101.78
  Z
  M 67.41 110.49
  C 65.44 113.25 62.14 111.70 62.06 108.48
  Q 61.87 100.84 61.80 93.07
  Q 61.79 92.50 61.22 92.50
  L 52.53 92.50
  Q 52.08 92.50 52.07 92.95
  C 51.89 98.18 50.95 111.40 53.72 115.68
  C 57.99 122.29 72.39 122.40 76.20 115.10
  C 78.68 110.36 77.57 98.66 77.55 93.07
  Q 77.54 92.50 76.97 92.50
  L 68.26 92.50
  Q 67.78 92.50 67.78 92.99
  L 67.70 109.61
  Q 67.70 110.10 67.41 110.49
  Z
  M 92.85 103.25
  A 0.35 0.35 0.0 0 1 92.50 102.90
  L 92.50 100.60
  A 0.35 0.35 0.0 0 1 92.85 100.25
  L 100.40 100.25
  A 0.35 0.35 0.0 0 0 100.75 99.90
  L 100.75 92.85
  A 0.35 0.35 0.0 0 0 100.40 92.50
  L 82.85 92.50
  A 0.35 0.35 0.0 0 0 82.50 92.85
  L 82.50 119.65
  A 0.35 0.35 0.0 0 0 82.85 120.00
  L 92.15 120.00
  A 0.35 0.35 0.0 0 0 92.50 119.65
  L 92.50 110.85
  A 0.35 0.35 0.0 0 1 92.85 110.50
  L 99.45 110.50
  A 0.35 0.35 0.0 0 0 99.80 110.15
  L 99.88 103.60
  A 0.35 0.35 0.0 0 0 99.53 103.25
  L 92.85 103.25
  Z
  M 114.95 112.08
  L 118.19 118.84
  A 2.04 2.03 -12.6 0 0 120.03 120.00
  L 129.51 120.00
  Q 130.29 120.00 129.86 119.35
  L 123.31 109.66
  Q 122.88 109.02 123.62 108.82
  Q 125.59 108.30 126.91 106.69
  A 1.21 1.13 75.1 0 0 127.13 106.28
  C 132.27 90.06 113.84 92.50 105.00 92.50
  Q 104.50 92.50 104.50 93.00
  L 104.50 119.50
  Q 104.50 120.00 105.00 120.00
  L 113.75 120.00
  A 0.50 0.50 0.0 0 0 114.25 119.50
  L 114.25 112.23
  A 0.37 0.36 32.6 0 1 114.95 112.08
  Z
  M 185.99 124.76
  A 0.26 0.26 0.0 0 0 185.73 124.50
  L 52.53 124.50
  A 0.26 0.26 0.0 0 0 52.27 124.76
  L 52.27 128.04
  A 0.26 0.26 0.0 0 0 52.53 128.30
  L 185.73 128.30
  A 0.26 0.26 0.0 0 0 185.99 128.04
  L 185.99 124.76
  Z
  M 186.24 156.32
  L 183.82 154.72
  Q 183.32 154.39 183.68 153.90
  C 188.38 147.64 188.79 134.31 179.02 132.72
  C 163.74 130.23 162.32 156.41 177.88 155.95
  A 1.12 1.11 63.7 0 1 178.61 156.20
  L 182.53 159.44
  Q 183.09 159.90 183.64 159.43
  L 186.29 157.13
  A 0.51 0.51 0.0 0 0 186.24 156.32
  Z
  M 107.27 151.01
  C 97.20 153.68 98.41 133.95 107.13 137.91
  Q 107.54 138.09 107.66 138.53
  L 108.09 140.16
  Q 108.22 140.64 108.72 140.62
  L 113.29 140.45
  A 0.39 0.39 0.0 0 0 113.66 140.01
  C 112.79 134.52 109.08 132.33 103.75 132.69
  C 97.18 133.13 94.80 138.02 94.68 144.02
  C 94.46 155.01 103.80 159.35 112.80 153.80
  A 1.99 1.98 74.2 0 0 113.74 152.11
  L 113.75 143.75
  A 0.50 0.50 0.0 0 0 113.25 143.25
  L 105.11 143.25
  Q 104.46 143.25 104.45 143.89
  L 104.39 146.56
  Q 104.37 147.50 105.31 147.50
  L 107.40 147.50
  Q 108.05 147.50 108.02 148.15
  L 107.94 150.18
  Q 107.91 150.84 107.27 151.01
  Z
  M 148.54 147.85
  A 1.65 1.65 0.0 0 1 148.60 150.86
  Q 144.16 152.97 142.77 148.79
  A 0.77 0.76 81.6 0 0 142.08 148.27
  L 138.26 148.20
  A 1.43 1.43 0.0 0 0 137.00 150.36
  C 140.22 155.75 145.96 157.44 151.41 155.10
  C 156.68 152.82 155.94 145.61 150.52 143.25
  Q 147.20 141.80 143.91 140.23
  A 0.96 0.95 -75.3 0 1 143.37 139.29
  C 143.57 136.59 148.40 136.33 149.19 138.92
  Q 149.34 139.42 149.87 139.44
  L 154.29 139.63
  A 0.71 0.71 0.0 0 0 155.01 138.77
  C 152.66 127.54 132.13 133.20 138.97 142.61
  C 140.74 145.05 145.66 146.63 148.54 147.85
  Z
  M 62.99 148.18
  C 73.86 148.29 73.51 133.66 63.99 133.03
  Q 61.83 132.88 53.71 133.05
  Q 53.25 133.06 53.25 133.52
  L 53.25 155.00
  Q 53.25 155.75 54.00 155.75
  L 58.37 155.75
  Q 59.00 155.75 59.00 155.12
  L 59.00 148.97
  Q 59.00 148.34 59.63 148.29
  Q 61.33 148.16 62.99 148.18
  Z
  M 86.24 147.90
  C 94.73 145.64 93.62 134.31 85.17 133.08
  Q 82.50 132.69 74.66 133.11
  Q 74.06 133.14 74.06 133.75
  L 74.07 155.07
  Q 74.07 155.75 74.75 155.75
  L 79.25 155.75
  A 0.75 0.75 0.0 0 0 80.00 155.00
  L 80.00 148.97
  A 0.71 0.71 0.0 0 1 80.70 148.26
  C 82.65 148.23 84.54 148.35 86.24 147.90
  Z
  M 132.87 145.54
  C 136.53 141.37 134.33 133.62 127.92 133.08
  Q 124.19 132.76 117.38 133.09
  Q 116.75 133.12 116.75 133.75
  L 116.75 155.22
  A 0.53 0.53 0.0 0 0 117.28 155.75
  L 121.88 155.75
  Q 122.50 155.75 122.50 155.12
  L 122.50 148.76
  A 0.57 0.56 2.8 0 1 123.12 148.20
  C 126.62 148.52 130.42 148.32 132.87 145.54
  Z
  M 163.8680 133.3047
  A 0.28 0.28 0.0 0 0 163.5895 133.0232
  L 158.5896 132.9971
  A 0.28 0.28 0.0 0 0 158.3081 133.2756
  L 158.1920 155.4553
  A 0.28 0.28 0.0 0 0 158.4705 155.7368
  L 163.4704 155.7629
  A 0.28 0.28 0.0 0 0 163.7519 155.4844
  L 163.8680 133.3047
  Z"
/>
<path fill="#e83237" d="
  M 120.06 48.23
  Q 121.16 48.41 120.14 48.85
  Q 112.99 51.97 113.15 59.85
  C 113.21 62.87 114.79 64.25 116.60 66.56
  Q 122.55 74.14 115.33 81.00
  A 1.18 1.18 0.0 0 1 113.38 79.83
  C 114.92 74.17 109.07 72.66 106.32 69.47
  C 101.15 63.47 101.69 55.22 107.97 50.57
  Q 112.69 47.07 120.06 48.23
  Z"
/>
<path fill="#e83237" d="
  M 117.03 81.61
  A 0.19 0.19 0.0 0 1 116.90 81.27
  Q 124.64 75.12 119.71 67.43
  C 116.51 62.43 118.21 57.36 124.28 56.11
  Q 125.64 55.83 124.61 56.77
  Q 122.46 58.73 123.86 61.43
  A 1.16 0.05 63.4 0 0 124.37 62.34
  C 133.02 69.04 127.00 80.95 117.03 81.61
  Z"
/>
<path fill="#e83237" d="
  M 101.05 61.19
  C 95.89 74.00 113.29 71.00 111.96 79.99
  Q 111.87 80.66 111.40 80.17
  C 108.29 76.91 105.32 78.23 102.18 76.94
  C 95.20 74.09 94.80 65.12 100.66 60.88
  A 0.26 0.26 0.0 0 1 101.05 61.19
  Z"
/>
<path fill="#0172aa" d="
  M 93.51 82.50
  L 135.00 82.50
  A 0.14 0.13 34.9 0 1 135.05 82.76
  Q 114.26 90.09 93.47 82.73
  A 0.12 0.12 0.0 0 1 93.51 82.50
  Z"
/>
<circle fill="#0172aa" cx="110.22" cy="89.42" r="1.28"/>
<circle fill="#0172aa" cx="118.41" cy="89.42" r="1.32"/>
<circle fill="#0172aa" cx="114.31" cy="89.40" r="1.29"/>
<path fill="#0172aa" d="
  M 149.73 110.25
  L 146.61 110.25
  Q 145.77 110.25 145.77 109.42
  L 145.77 104.46
  Q 145.77 103.75 146.48 103.75
  L 160.51 103.75
  Q 161.12 103.75 161.18 104.36
  C 163.17 124.09 133.34 126.36 131.09 108.18
  C 129.09 92.04 151.28 86.27 159.51 98.48
  Q 159.88 99.03 159.26 99.25
  L 151.01 102.28
  A 0.81 0.81 0.0 0 1 150.16 102.10
  L 148.79 100.74
  Q 148.45 100.40 147.96 100.40
  C 134.88 100.57 143.21 118.99 150.09 111.04
  A 0.48 0.48 0.0 0 0 149.73 110.25
  Z"
/>
<path fill="#0172aa" d="
  M 175.13 101.78
  C 178.21 102.64 182.38 103.36 184.40 105.72
  C 187.27 109.07 186.19 114.67 183.11 117.51
  C 178.24 122.02 169.42 120.92 163.98 118.04
  A 0.41 0.40 -66.8 0 1 163.79 117.54
  L 166.33 110.82
  A 0.47 0.47 0.0 0 1 167.08 110.63
  C 168.54 111.91 174.68 115.00 175.93 111.84
  A 1.24 1.24 0.0 0 0 175.00 110.17
  C 171.16 109.46 166.40 108.73 164.97 104.66
  C 163.12 99.43 166.94 94.28 172.01 92.72
  Q 178.68 90.67 184.75 94.36
  Q 185.10 94.57 184.95 94.95
  L 182.86 100.45
  A 0.84 0.84 0.0 0 1 181.61 100.85
  Q 178.66 98.87 175.16 99.72
  A 1.07 1.06 45.9 0 0 175.13 101.78
  Z"
/>
<path fill="#0172aa" d="
  M 62.06 108.48
  C 62.14 111.70 65.44 113.25 67.41 110.49
  Q 67.70 110.10 67.70 109.61
  L 67.78 92.99
  Q 67.78 92.50 68.26 92.50
  L 76.97 92.50
  Q 77.54 92.50 77.55 93.07
  C 77.57 98.66 78.68 110.36 76.20 115.10
  C 72.39 122.40 57.99 122.29 53.72 115.68
  C 50.95 111.40 51.89 98.18 52.07 92.95
  Q 52.08 92.50 52.53 92.50
  L 61.22 92.50
  Q 61.79 92.50 61.80 93.07
  Q 61.87 100.84 62.06 108.48
  Z"
/>
<path fill="#0172aa" d="
  M 92.85 103.25
  L 99.53 103.25
  A 0.35 0.35 0.0 0 1 99.88 103.60
  L 99.80 110.15
  A 0.35 0.35 0.0 0 1 99.45 110.50
  L 92.85 110.50
  A 0.35 0.35 0.0 0 0 92.50 110.85
  L 92.50 119.65
  A 0.35 0.35 0.0 0 1 92.15 120.00
  L 82.85 120.00
  A 0.35 0.35 0.0 0 1 82.50 119.65
  L 82.50 92.85
  A 0.35 0.35 0.0 0 1 82.85 92.50
  L 100.40 92.50
  A 0.35 0.35 0.0 0 1 100.75 92.85
  L 100.75 99.90
  A 0.35 0.35 0.0 0 1 100.40 100.25
  L 92.85 100.25
  A 0.35 0.35 0.0 0 0 92.50 100.60
  L 92.50 102.90
  A 0.35 0.35 0.0 0 0 92.85 103.25
  Z"
/>
<path fill="#0172aa" d="
  M 114.25 112.23
  L 114.25 119.50
  A 0.50 0.50 0.0 0 1 113.75 120.00
  L 105.00 120.00
  Q 104.50 120.00 104.50 119.50
  L 104.50 93.00
  Q 104.50 92.50 105.00 92.50
  C 113.84 92.50 132.27 90.06 127.13 106.28
  A 1.21 1.13 75.1 0 1 126.91 106.69
  Q 125.59 108.30 123.62 108.82
  Q 122.88 109.02 123.31 109.66
  L 129.86 119.35
  Q 130.29 120.00 129.51 120.00
  L 120.03 120.00
  A 2.04 2.03 -12.6 0 1 118.19 118.84
  L 114.95 112.08
  A 0.37 0.36 32.6 0 0 114.25 112.23
  Z
  M 114.24 100.67
  L 114.24 104.19
  A 0.69 0.69 0.0 0 0 114.93 104.88
  L 115.16 104.88
  A 3.12 2.24 0.1 0 0 118.28 102.64
  L 118.28 102.22
  A 3.12 2.24 0.1 0 0 115.16 99.98
  L 114.93 99.98
  A 0.69 0.69 0.0 0 0 114.24 100.67
  Z"
/>
<path fill="#ffffff" d="
  M 114.24 100.67
  A 0.69 0.69 0.0 0 1 114.93 99.98
  L 115.16 99.98
  A 3.12 2.24 0.1 0 1 118.28 102.22
  L 118.28 102.64
  A 3.12 2.24 0.1 0 1 115.16 104.88
  L 114.93 104.88
  A 0.69 0.69 0.0 0 1 114.24 104.19
  L 114.24 100.67
  Z"
/>
<rect fill="#0172aa" x="52.27" y="124.50" width="133.72" height="3.80" rx="0.26"/>
<path fill="#0172aa" d="
  M 186.24 156.32
  A 0.51 0.51 0.0 0 1 186.29 157.13
  L 183.64 159.43
  Q 183.09 159.90 182.53 159.44
  L 178.61 156.20
  A 1.12 1.11 63.7 0 0 177.88 155.95
  C 162.32 156.41 163.74 130.23 179.02 132.72
  C 188.79 134.31 188.38 147.64 183.68 153.90
  Q 183.32 154.39 183.82 154.72
  L 186.24 156.32
  Z
  M 177.0695 151.3798
  A 7.09 4.24 89.6 0 0 181.2599 144.2604
  A 7.09 4.24 89.6 0 0 176.9705 137.2002
  A 7.09 4.24 89.6 0 0 172.7801 144.3196
  A 7.09 4.24 89.6 0 0 177.0695 151.3798
  Z"
/>
<path fill="#0172aa" d="
  M 107.13 137.91
  C 98.41 133.95 97.20 153.68 107.27 151.01
  Q 107.91 150.84 107.94 150.18
  L 108.02 148.15
  Q 108.05 147.50 107.40 147.50
  L 105.31 147.50
  Q 104.37 147.50 104.39 146.56
  L 104.45 143.89
  Q 104.46 143.25 105.11 143.25
  L 113.25 143.25
  A 0.50 0.50 0.0 0 1 113.75 143.75
  L 113.74 152.11
  A 1.99 1.98 74.2 0 1 112.80 153.80
  C 103.80 159.35 94.46 155.01 94.68 144.02
  C 94.80 138.02 97.18 133.13 103.75 132.69
  C 109.08 132.33 112.79 134.52 113.66 140.01
  A 0.39 0.39 0.0 0 1 113.29 140.45
  L 108.72 140.62
  Q 108.22 140.64 108.09 140.16
  L 107.66 138.53
  Q 107.54 138.09 107.13 137.91
  Z"
/>
<path fill="#0172aa" d="
  M 148.54 147.85
  C 145.66 146.63 140.74 145.05 138.97 142.61
  C 132.13 133.20 152.66 127.54 155.01 138.77
  A 0.71 0.71 0.0 0 1 154.29 139.63
  L 149.87 139.44
  Q 149.34 139.42 149.19 138.92
  C 148.40 136.33 143.57 136.59 143.37 139.29
  A 0.96 0.95 -75.3 0 0 143.91 140.23
  Q 147.20 141.80 150.52 143.25
  C 155.94 145.61 156.68 152.82 151.41 155.10
  C 145.96 157.44 140.22 155.75 137.00 150.36
  A 1.43 1.43 0.0 0 1 138.26 148.20
  L 142.08 148.27
  A 0.77 0.76 81.6 0 1 142.77 148.79
  Q 144.16 152.97 148.60 150.86
  A 1.65 1.65 0.0 0 0 148.54 147.85
  Z"
/>
<path fill="#0172aa" d="
  M 63.99 133.03
  C 73.51 133.66 73.86 148.29 62.99 148.18
  Q 61.33 148.16 59.63 148.29
  Q 59.00 148.34 59.00 148.97
  L 59.00 155.12
  Q 59.00 155.75 58.37 155.75
  L 54.00 155.75
  Q 53.25 155.75 53.25 155.00
  L 53.25 133.52
  Q 53.25 133.06 53.71 133.05
  Q 61.83 132.88 63.99 133.03
  Z
  M 59.00 138.38
  L 59.00 142.90
  A 0.62 0.62 0.0 0 0 59.63 143.51
  L 62.67 143.51
  A 2.60 2.55 -0.1 0 0 65.26 140.95
  L 65.26 140.29
  A 2.60 2.55 -0.1 0 0 62.65 137.75
  L 59.61 137.75
  A 0.62 0.62 0.0 0 0 59.00 138.38
  Z"
/>
<path fill="#0172aa" d="
  M 85.17 133.08
  C 93.62 134.31 94.73 145.64 86.24 147.90
  C 84.54 148.35 82.65 148.23 80.70 148.26
  A 0.71 0.71 0.0 0 0 80.00 148.97
  L 80.00 155.00
  A 0.75 0.75 0.0 0 1 79.25 155.75
  L 74.75 155.75
  Q 74.07 155.75 74.07 155.07
  L 74.06 133.75
  Q 74.06 133.14 74.66 133.11
  Q 82.50 132.69 85.17 133.08
  Z
  M 80.00 137.99
  L 80.00 143.27
  A 0.29 0.29 0.0 0 0 80.28 143.57
  L 83.19 143.57
  A 3.00 2.86 0.1 0 0 86.20 140.72
  L 86.20 140.58
  A 3.00 2.86 0.1 0 0 83.21 137.71
  L 80.30 137.71
  A 0.29 0.29 0.0 0 0 80.00 137.99
  Z"
/>
<path fill="#0172aa" d="
  M 127.92 133.08
  C 134.33 133.62 136.53 141.37 132.87 145.54
  C 130.42 148.32 126.62 148.52 123.12 148.20
  A 0.57 0.56 2.8 0 0 122.50 148.76
  L 122.50 155.12
  Q 122.50 155.75 121.88 155.75
  L 117.28 155.75
  A 0.53 0.53 0.0 0 1 116.75 155.22
  L 116.75 133.75
  Q 116.75 133.12 117.38 133.09
  Q 124.19 132.76 127.92 133.08
  Z
  M 122.50 138.38
  L 122.50 142.90
  A 0.62 0.62 0.0 0 0 123.12 143.52
  L 126.28 143.52
  A 2.56 2.48 -90.0 0 0 128.76 140.96
  L 128.76 140.32
  A 2.56 2.48 90.0 0 0 126.28 137.76
  L 123.12 137.76
  A 0.62 0.62 0.0 0 0 122.50 138.38
  Z"
/>
<rect fill="#0172aa" x="-2.78" y="-11.37" transform="translate(161.03,144.38) rotate(0.3)" width="5.56" height="22.74" rx="0.28"/>
<ellipse fill="#ffffff" cx="0.00" cy="0.00" transform="translate(177.02,144.29) rotate(89.6)" rx="7.09" ry="4.24"/>
<path fill="#ffffff" d="
  M 59.00 138.38
  A 0.62 0.62 0.0 0 1 59.61 137.75
  L 62.65 137.75
  A 2.60 2.55 -0.1 0 1 65.26 140.29
  L 65.26 140.95
  A 2.60 2.55 -0.1 0 1 62.67 143.51
  L 59.63 143.51
  A 0.62 0.62 0.0 0 1 59.00 142.90
  L 59.00 138.38
  Z"
/>
<path fill="#ffffff" d="
  M 80.00 137.99
  A 0.29 0.29 0.0 0 1 80.30 137.71
  L 83.21 137.71
  A 3.00 2.86 0.1 0 1 86.20 140.58
  L 86.20 140.72
  A 3.00 2.86 0.1 0 1 83.19 143.57
  L 80.28 143.57
  A 0.29 0.29 0.0 0 1 80.00 143.27
  L 80.00 137.99
  Z"
/>
<path fill="#ffffff" d="
  M 122.50 138.38
  A 0.62 0.62 0.0 0 1 123.12 137.76
  L 126.28 137.76
  A 2.56 2.48 90.0 0 1 128.76 140.32
  L 128.76 140.96
  A 2.56 2.48 -90.0 0 1 126.28 143.52
  L 123.12 143.52
  A 0.62 0.62 0.0 0 1 122.50 142.90
  L 122.50 138.38
  Z"
/>
</svg>
